<svg width="19" height="19" viewBox="0 0 19 19" fill="none" xmlns="http://www.w3.org/2000/svg">
<path d="M19 1.01566C19 0.454726 18.5453 -7.86866e-07 17.9843 -1.04371e-06L8.84339 -2.30376e-07C8.28246 -5.72831e-07 7.82773 0.454727 7.82773 1.01566C7.82773 1.57659 8.28246 2.03132 8.84339 2.03132L16.9687 2.03132L16.9687 10.1566C16.9687 10.7175 17.4234 11.1723 17.9843 11.1723C18.5453 11.1723 19 10.7175 19 10.1566L19 1.01566ZM0.718104 18.2819L1.43628 19.0001L18.7025 1.73384L17.9843 1.01566L17.2662 0.29748L-7.67018e-05 17.5637L0.718104 18.2819Z" fill="white"/>
</svg>
