<svg width="12" height="19" viewBox="0 0 12 19" fill="none" xmlns="http://www.w3.org/2000/svg">
<path fill-rule="evenodd" clip-rule="evenodd" d="M6 18.6652C6.17679 18.6652 6.34633 18.595 6.47134 18.47C6.59635 18.345 6.66657 18.1755 6.66657 17.9987V2.27687L10.8607 6.47228C10.9858 6.59745 11.1556 6.66777 11.3326 6.66777C11.5096 6.66777 11.6794 6.59745 11.8045 6.47228C11.9297 6.34712 12 6.17736 12 6.00035C12 5.82334 11.9297 5.65358 11.8045 5.52842L6.47193 0.195831C6.41002 0.133755 6.33646 0.0845051 6.25548 0.0509012C6.17449 0.0172973 6.08768 0 6 0C5.91232 0 5.82551 0.0172973 5.74453 0.0509012C5.66354 0.0845051 5.58999 0.133755 5.52807 0.195831L0.195481 5.52842C0.133506 5.59039 0.0843448 5.66397 0.050804 5.74494C0.0172633 5.82592 0 5.9127 0 6.00035C0 6.17736 0.0703166 6.34712 0.195481 6.47228C0.320646 6.59745 0.490406 6.66777 0.667415 6.66777C0.844425 6.66777 1.01418 6.59745 1.13935 6.47228L5.33343 2.27687V17.9987C5.33343 18.1755 5.40366 18.345 5.52866 18.47C5.65367 18.595 5.82321 18.6652 6 18.6652Z" fill="white"/>
</svg>
