<svg width="40" height="34" viewBox="0 0 40 34" fill="none" xmlns="http://www.w3.org/2000/svg">
<path d="M27.6924 33.5195L26.1533 33.5195C25.8679 33.5194 25.6195 33.4304 25.3975 33.2441L25.3037 33.1582C25.0585 32.9128 24.9434 32.6341 24.9434 32.3076L24.9434 29.2305C24.9434 28.9449 25.0315 28.6966 25.2178 28.4746L25.3037 28.3809C25.5492 28.1356 25.8271 28.0206 26.1533 28.0205L27.6924 28.0205C29.4779 28.0204 31.0111 27.384 32.2744 26.1211L32.2754 26.1211C33.5386 24.8577 34.1738 23.3237 34.1738 21.5381L34.1738 20.7695C34.1738 20.0425 33.9157 19.4141 33.4053 18.9033C32.8943 18.3924 32.265 18.1338 31.5381 18.1338L26.1533 18.1338C24.9575 18.1337 23.9512 17.7187 23.1162 16.8838C22.2806 16.0481 21.8653 15.0429 21.8652 13.8467L21.8652 4.61621C21.8652 3.41961 22.2803 2.41374 23.1152 1.57812C23.9507 0.742927 24.9573 0.328124 26.1533 0.328124L35.3848 0.328125C36.5808 0.328192 37.5875 0.743028 38.4229 1.57812L38.4219 1.57812C39.2572 2.4138 39.6729 3.41935 39.6729 4.61621L39.6729 21.5391C39.6728 23.1618 39.3569 24.7086 38.7256 26.1816C38.092 27.66 37.2369 28.9344 36.1621 30.0088C35.0872 31.0836 33.8131 31.9387 32.335 32.5723C30.8616 33.2033 29.3152 33.5195 27.6924 33.5195Z" stroke="black" stroke-width="0.655174"/>
<path d="M6.15234 33.5195L4.61426 33.5195C4.28799 33.5195 4.00971 33.4038 3.76465 33.1592L3.76465 33.1582C3.51925 32.9126 3.40332 32.6339 3.40332 32.3076L3.40332 29.2305C3.4034 28.9043 3.51931 28.6265 3.76465 28.3809C4.00982 28.1358 4.28774 28.0205 4.61426 28.0205L6.15234 28.0205C7.93874 28.0205 9.47239 27.3841 10.7354 26.1211C11.9981 24.8577 12.6338 23.3239 12.6338 21.5381L12.6338 20.7695C12.6338 20.1336 12.4365 19.573 12.0449 19.1006L11.8652 18.9033C11.3549 18.3921 10.7255 18.1338 9.99902 18.1338L4.61426 18.1338C3.41793 18.1338 2.4122 17.7188 1.57715 16.8838C0.742093 16.0482 0.327174 15.0432 0.32715 13.8467L0.327151 4.61621C0.327151 3.4194 0.741671 2.41366 1.57715 1.57812C2.4122 0.742997 3.41885 0.328124 4.61524 0.328124L13.8457 0.328125C15.042 0.328152 16.0477 0.743016 16.8828 1.57812L16.8838 1.57812C17.7186 2.41374 18.1338 3.41971 18.1338 4.61621L18.1338 21.5391C18.1337 23.1617 17.8168 24.7085 17.1855 26.1816C16.5523 27.6598 15.6978 28.9345 14.623 30.0088C13.6825 30.9493 12.5895 31.7215 11.3408 32.3242L10.7959 32.5723C9.3221 33.2033 7.77612 33.5195 6.15234 33.5195Z" stroke="black" stroke-width="0.655174"/>
</svg>
