<svg width="23" height="23" viewBox="0 0 23 23" fill="none" xmlns="http://www.w3.org/2000/svg">
<path d="M23 1.0129C23 0.453492 22.5465 3.78528e-07 21.9871 1.22385e-07L12.871 9.33507e-07C12.3116 5.91982e-07 11.8581 0.453493 11.8581 1.0129C11.8581 1.57231 12.3116 2.0258 12.871 2.0258L20.9742 2.0258L20.9742 10.129C20.9742 10.6884 21.4277 11.1419 21.9871 11.1419C22.5465 11.1419 23 10.6884 23 10.129L23 1.0129ZM0.716153 22.2838L1.43238 23.0001L22.7033 1.72913L21.9871 1.0129L21.2709 0.296673L-7.64934e-05 21.5676L0.716153 22.2838Z" fill="black"/>
</svg>
