<svg width="100" height="100" viewBox="0 0 100 100" fill="none" xmlns="http://www.w3.org/2000/svg">
<rect width="100" height="100" fill="black"/>
<path d="M11.1585 61.2978V27.637L7 27.2278V26.8185H19.4755V27.2278L15.0634 27.637V61.5025H26.2711C27.0825 61.5025 27.6742 61.3831 28.0461 61.1444C28.418 60.8715 28.7561 60.36 29.0604 59.6097L32.5089 50.862L33.1174 50.9643L31.8496 62.1163H7V61.7071L11.1585 61.2978Z" fill="white"/>
<path d="M53.6568 61.6048C52.0002 62.4915 50.1238 62.9348 48.0276 62.9348C46.4386 62.9348 44.9003 62.6791 43.4127 62.1675C41.9251 61.69 40.6573 61.008 39.6092 60.1213L38.5442 62.9348H37.8849L37.2256 50.7085L37.6821 50.6062C38.1892 52.9253 38.6963 54.7328 39.2035 56.0287C39.7444 57.3247 40.4375 58.4501 41.2827 59.4051C43.007 61.349 45.2891 62.321 48.129 62.321C50.5633 62.321 52.4566 61.69 53.809 60.4282C55.1951 59.1322 55.8882 57.3929 55.8882 55.2102C55.8882 53.6756 55.5163 52.3796 54.7725 51.3224C54.0625 50.2651 53.0821 49.3614 51.8311 48.6111C50.5802 47.8608 48.8221 46.9911 46.5569 46.0021C44.6974 45.1836 43.1422 44.3822 41.8913 43.5978C40.6403 42.7793 39.5923 41.7391 38.747 40.4772C37.9356 39.1813 37.5299 37.6125 37.5299 35.7709C37.5299 33.8951 37.9694 32.224 38.8485 30.7575C39.7613 29.257 40.9953 28.0974 42.5506 27.2789C44.1396 26.4263 45.9315 26 47.9262 26C49.3124 26 50.5971 26.2387 51.7804 26.7162C52.9975 27.1936 54.2992 27.978 55.6854 29.0694L56.9025 26.6139H57.5617L58.0689 37.7659L57.5617 37.9194C57.0208 35.6344 56.3277 33.6223 55.4825 31.883C53.792 28.3702 51.2057 26.6139 47.7233 26.6139C45.6272 26.6139 43.9536 27.2278 42.7027 28.4555C41.4518 29.6491 40.8263 31.2862 40.8263 33.3665C40.8263 34.8671 41.1644 36.1289 41.8406 37.1521C42.5506 38.1752 43.5141 39.0619 44.7312 39.8122C45.9822 40.5625 47.7402 41.4663 50.0054 42.5235C52.034 43.4443 53.6568 44.314 54.8739 45.1325C56.1249 45.951 57.1222 46.9741 57.866 48.2018C58.6436 49.3955 59.0324 50.879 59.0324 52.6524C59.0324 54.6305 58.5591 56.4039 57.6125 57.9727C56.6658 59.5074 55.3473 60.7181 53.6568 61.6048Z" fill="white"/>
<path d="M84.4795 61.2467C85.9333 60.5987 87.1504 59.7291 88.1309 58.6377C89.7875 56.762 91.0385 53.9654 91.8837 50.2481L92.543 50.3504V62.1163H91.8837L90.1594 59.3027C88.638 60.4282 86.9814 61.3149 85.1895 61.9629C83.4314 62.6109 81.7241 62.9348 80.0674 62.9348C77.1261 62.9348 74.4213 62.1163 71.9533 60.4793C69.519 58.8423 67.5919 56.6256 66.1719 53.829C64.7858 50.9984 64.0927 47.8778 64.0927 44.4674C64.0927 41.0911 64.7858 37.9876 66.1719 35.157C67.5919 32.3263 69.519 30.0925 71.9533 28.4555C74.3875 26.8185 77.0584 26 79.966 26C81.4874 26 83.0426 26.2558 84.6317 26.7673C86.2545 27.2448 88.0464 28.0121 90.0073 29.0694L91.2244 26.6139H91.8837L92.3908 38.124L91.6808 38.3287C91.2075 35.7026 90.4637 33.537 89.4494 31.8318C88.4352 30.1607 87.1166 28.8818 85.4938 27.9951C83.871 27.0743 82.0791 26.6139 80.1182 26.6139C76.5344 26.6139 73.779 28.1656 71.8519 31.2691C69.9247 34.3726 68.9612 38.772 68.9612 44.4674C68.9612 50.1287 69.9247 54.5111 71.8519 57.6146C73.779 60.684 76.5175 62.2187 80.0674 62.2187C81.5889 62.2187 83.0595 61.8947 84.4795 61.2467Z" fill="white"/>
<path d="M8.89148 72.0395H11.5763V72.8989H8.89148C8.57168 72.8989 8.29723 72.8026 8.06813 72.61C7.8438 72.4126 7.73163 72.1767 7.73163 71.9022V68.3851H8.73397V71.9022C8.73397 71.9408 8.74829 71.9745 8.77692 72.0034C8.81034 72.0274 8.84852 72.0395 8.89148 72.0395Z" fill="white"/>
<path d="M13.3927 69.2662C13.3354 69.2662 13.2876 69.283 13.2495 69.3167C13.2113 69.3504 13.1922 69.389 13.1922 69.4323V70.2195H16.4713V71.0862H13.1922V71.8734C13.1922 71.9215 13.2113 71.9624 13.2495 71.9961C13.2876 72.0298 13.3354 72.0467 13.3927 72.0467H17.0941V72.9061H13.3927C13.1731 72.9061 12.9702 72.8604 12.7841 72.7689C12.6027 72.6774 12.4571 72.5522 12.3474 72.3933C12.2424 72.2345 12.1898 72.0611 12.1898 71.8734V69.4323C12.1898 69.1482 12.3068 68.9075 12.5407 68.7101C12.7745 68.5079 13.0585 68.4068 13.3927 68.4068H17.0941V69.2662H13.3927Z" fill="white"/>
<path d="M21.3735 68.6668L23.7576 72.9494H22.6479L22.1252 72.0178H19.1898L18.6242 72.9494H17.493L20.0991 68.6451C20.1659 68.544 20.2566 68.4645 20.3711 68.4068C20.4857 68.3442 20.6098 68.3153 20.7434 68.3201C20.8819 68.3201 21.006 68.3514 21.1157 68.414C21.2303 68.4766 21.3162 68.5608 21.3735 68.6668ZM19.7125 71.1584H21.6455L20.722 69.4901L19.7125 71.1584Z" fill="white"/>
<path d="M26.42 70.2195H29.1406V71.8228C29.1406 72.025 29.0809 72.2128 28.9616 72.3861C28.8471 72.5546 28.6895 72.6894 28.4891 72.7906C28.2886 72.8869 28.0714 72.935 27.8376 72.935H25.4105C25.1766 72.935 24.9594 72.8869 24.7589 72.7906C24.5585 72.6894 24.3986 72.5546 24.2793 72.3861C24.1647 72.2128 24.1074 72.025 24.1074 71.8228V69.5045C24.1074 69.1964 24.2339 68.934 24.4869 68.7173C24.7446 68.4958 25.0525 68.3851 25.4105 68.3851H27.7516C27.9903 68.3851 28.2075 68.4357 28.4032 68.5368C28.6036 68.6331 28.7611 68.7679 28.8757 68.9412C28.995 69.1145 29.0547 69.3023 29.0547 69.5045V69.6128H28.0523V69.5045C28.0523 69.4564 28.038 69.413 28.0094 69.3745C27.9855 69.336 27.9497 69.3047 27.902 69.2806C27.859 69.2566 27.8089 69.2445 27.7516 69.2445H25.4105C25.3293 69.2445 25.2577 69.271 25.1957 69.324C25.1384 69.3721 25.1098 69.4323 25.1098 69.5045V71.8156C25.1098 71.8878 25.1384 71.9504 25.1957 72.0034C25.2577 72.0515 25.3293 72.0756 25.4105 72.0756H27.8376C27.9187 72.0756 27.9879 72.0515 28.0452 72.0034C28.1072 71.9504 28.1383 71.8878 28.1383 71.8156V71.0862H26.42V70.2195Z" fill="white"/>
<path d="M34.1298 68.3851H35.1322V71.8228C35.1322 72.1309 34.9962 72.3933 34.7241 72.61C34.4568 72.8267 34.1322 72.935 33.7504 72.935H31.4522C31.0703 72.935 30.7434 72.8267 30.4713 72.61C30.204 72.3933 30.0704 72.1309 30.0704 71.8228V68.3851H31.0727V71.8228C31.0727 71.8902 31.1109 71.9504 31.1873 72.0034C31.2636 72.0515 31.3519 72.0756 31.4522 72.0756H33.7504C33.8506 72.0756 33.9389 72.0515 34.0153 72.0034C34.0917 71.9504 34.1298 71.8902 34.1298 71.8228V68.3851Z" fill="white"/>
<path d="M37.3047 69.2662C37.2474 69.2662 37.1997 69.283 37.1615 69.3167C37.1233 69.3504 37.1043 69.389 37.1043 69.4323V70.2195H40.3833V71.0862H37.1043V71.8734C37.1043 71.9215 37.1233 71.9624 37.1615 71.9961C37.1997 72.0298 37.2474 72.0467 37.3047 72.0467H41.0062V72.9061H37.3047C37.0852 72.9061 36.8823 72.8604 36.6962 72.7689C36.5148 72.6774 36.3692 72.5522 36.2594 72.3933C36.1544 72.2345 36.1019 72.0611 36.1019 71.8734V69.4323C36.1019 69.1482 36.2189 68.9075 36.4527 68.7101C36.6866 68.5079 36.9706 68.4068 37.3047 68.4068H41.0062V69.2662H37.3047Z" fill="white"/>
<path d="M49.0162 69.6778H48.0138V69.454C48.0138 69.4058 47.9876 69.3649 47.9351 69.3312C47.8826 69.2927 47.8229 69.2734 47.7561 69.2734H45.5223C45.4507 69.2734 45.3887 69.2927 45.3362 69.3312C45.2884 69.3649 45.2646 69.4058 45.2646 69.454V69.4684C45.2646 69.5358 45.3051 69.5864 45.3863 69.6201L48.3432 70.9923C48.5436 71.0837 48.7012 71.2113 48.8157 71.375C48.9303 71.5387 48.9899 71.7145 48.9947 71.9022C48.9947 72.1815 48.8778 72.4222 48.6439 72.6244C48.3957 72.8411 48.0926 72.9494 47.7346 72.9494H45.5223C45.1834 72.9494 44.8899 72.8507 44.6417 72.6533C44.3887 72.4463 44.2622 72.1959 44.2622 71.9022V71.7072H45.2646V71.9022C45.2646 71.9504 45.2861 71.9913 45.329 72.025C45.3815 72.0683 45.4459 72.09 45.5223 72.09H47.7346C47.811 72.09 47.8754 72.0659 47.9279 72.0178C47.9661 71.9841 47.9852 71.9456 47.9852 71.9022C47.9852 71.8397 47.947 71.7891 47.8706 71.7506L44.9066 70.3784C44.7061 70.2869 44.5486 70.1593 44.4341 69.9956C44.3195 69.8319 44.2622 69.6562 44.2622 69.4684V69.454C44.2622 69.2662 44.3171 69.0929 44.4269 68.934C44.5415 68.7703 44.6942 68.6427 44.8851 68.5512C45.0808 68.4597 45.2932 68.414 45.5223 68.414H47.7561C48.1045 68.414 48.4005 68.5175 48.6439 68.7245C48.8921 68.9268 49.0162 69.1699 49.0162 69.454V69.6778Z" fill="white"/>
<path d="M53.6948 68.3851C53.9001 68.3851 54.0886 68.4308 54.2604 68.5223C54.437 68.6138 54.5755 68.739 54.6757 68.8979C54.7759 69.0519 54.826 69.2229 54.826 69.4106V70.4578C54.826 70.6456 54.7759 70.8189 54.6757 70.9778C54.5755 71.1319 54.437 71.2547 54.2604 71.3461C54.0886 71.4376 53.9001 71.4834 53.6948 71.4834H50.8954V72.935H49.8931V68.3851H53.6948ZM53.8237 70.4578V69.4106C53.8237 69.3673 53.8094 69.3288 53.7808 69.2951C53.7569 69.2614 53.7282 69.2445 53.6948 69.2445H50.8954V70.6239H53.6948C53.7282 70.6239 53.7569 70.6095 53.7808 70.5806C53.8094 70.5469 53.8237 70.506 53.8237 70.4578Z" fill="white"/>
<path d="M59.6901 68.3129C60.0672 68.3129 60.3894 68.4308 60.6567 68.6668C60.9287 68.9027 61.0648 69.1867 61.0648 69.519V71.7939C61.0648 72.1261 60.9287 72.4102 60.6567 72.6461C60.3894 72.882 60.0672 73 59.6901 73H56.9838C56.6067 73 56.2822 72.882 56.0101 72.6461C55.7428 72.4102 55.6092 72.1261 55.6092 71.7939V69.519C55.6092 69.1867 55.7428 68.9027 56.0101 68.6668C56.2822 68.4308 56.6067 68.3129 56.9838 68.3129H59.6901ZM60.0624 71.7939V69.519C60.0624 69.4227 60.0242 69.3408 59.9479 69.2734C59.8763 69.206 59.7903 69.1723 59.6901 69.1723H56.9838C56.917 69.1723 56.8549 69.1892 56.7977 69.2229C56.7404 69.2517 56.695 69.2927 56.6616 69.3456C56.6282 69.3986 56.6115 69.4564 56.6115 69.519V71.7939C56.6115 71.8854 56.6473 71.9648 56.7189 72.0322C56.7905 72.0996 56.8788 72.1333 56.9838 72.1333H59.6901C59.7569 72.1333 59.819 72.1189 59.8763 72.09C59.9335 72.0611 59.9789 72.0202 60.0123 71.9672C60.0457 71.9143 60.0624 71.8565 60.0624 71.7939Z" fill="white"/>
<path d="M66.1791 71.3028L67.3103 72.9494H66.1433L65.0408 71.3389H63.0647V72.935H62.0624V68.3851H65.8641C66.1744 68.3851 66.4393 68.4814 66.6588 68.674C66.8832 68.8666 66.9953 69.0977 66.9953 69.3673V70.3567C66.9953 70.5782 66.919 70.7756 66.7662 70.9489C66.6135 71.1223 66.4178 71.2402 66.1791 71.3028ZM65.993 70.3567V69.3673C65.993 69.3336 65.9787 69.3047 65.95 69.2806C65.9262 69.2566 65.8975 69.2445 65.8641 69.2445H63.0647V70.4795H65.8641C65.8975 70.4795 65.9262 70.4675 65.95 70.4434C65.9787 70.4193 65.993 70.3904 65.993 70.3567Z" fill="white"/>
<path d="M67.5959 68.3995H72.6721V69.259H70.6602V72.9278H69.6579V69.259H67.5959V68.3995Z" fill="white"/>
<path d="M77.9117 69.6778H76.9093V69.454C76.9093 69.4058 76.8831 69.3649 76.8306 69.3312C76.7781 69.2927 76.7184 69.2734 76.6516 69.2734H74.4178C74.3462 69.2734 74.2842 69.2927 74.2317 69.3312C74.1839 69.3649 74.1601 69.4058 74.1601 69.454V69.4684C74.1601 69.5358 74.2006 69.5864 74.2818 69.6201L77.2387 70.9923C77.4392 71.0837 77.5967 71.2113 77.7112 71.375C77.8258 71.5387 77.8854 71.7145 77.8902 71.9022C77.8902 72.1815 77.7733 72.4222 77.5394 72.6244C77.2912 72.8411 76.9881 72.9494 76.6301 72.9494H74.4178C74.0789 72.9494 73.7854 72.8507 73.5372 72.6533C73.2842 72.4463 73.1577 72.1959 73.1577 71.9022V71.7072H74.1601V71.9022C74.1601 71.9504 74.1816 71.9913 74.2245 72.025C74.277 72.0683 74.3415 72.09 74.4178 72.09H76.6301C76.7065 72.09 76.7709 72.0659 76.8234 72.0178C76.8616 71.9841 76.8807 71.9456 76.8807 71.9022C76.8807 71.8397 76.8425 71.7891 76.7662 71.7506L73.8021 70.3784C73.6016 70.2869 73.4441 70.1593 73.3296 69.9956C73.215 69.8319 73.1577 69.6562 73.1577 69.4684V69.454C73.1577 69.2662 73.2126 69.0929 73.3224 68.934C73.437 68.7703 73.5897 68.6427 73.7806 68.5512C73.9763 68.4597 74.1887 68.414 74.4178 68.414H76.6516C77 68.414 77.296 68.5175 77.5394 68.7245C77.7876 68.9268 77.9117 69.1699 77.9117 69.454V69.6778Z" fill="white"/>
<path d="M86.6503 70.1978H85.648V69.519C85.648 69.4467 85.6026 69.3841 85.5119 69.3312C85.426 69.2734 85.3234 69.2445 85.2041 69.2445H82.7555C82.6982 69.2445 82.641 69.2542 82.5837 69.2734C82.5312 69.2879 82.4834 69.3071 82.4405 69.3312C82.4023 69.3553 82.3713 69.3842 82.3474 69.4179C82.3236 69.4516 82.3116 69.4853 82.3116 69.519V71.8156C82.3116 71.8878 82.357 71.9528 82.4476 72.0106C82.5383 72.0635 82.641 72.09 82.7555 72.09H85.2041C85.3234 72.09 85.426 72.0635 85.5119 72.0106C85.6026 71.9528 85.648 71.8878 85.648 71.8156V71.1078H86.6503V71.8156C86.6503 72.1285 86.5071 72.3958 86.2207 72.6172C85.9391 72.8387 85.6002 72.9494 85.2041 72.9494H82.7555C82.3593 72.9494 82.0181 72.8387 81.7317 72.6172C81.4501 72.3958 81.3093 72.1285 81.3093 71.8156V69.519C81.3093 69.206 81.4501 68.9388 81.7317 68.7173C82.0181 68.4958 82.3593 68.3851 82.7555 68.3851H85.2041C85.6002 68.3851 85.9391 68.4958 86.2207 68.7173C86.5071 68.9388 86.6503 69.206 86.6503 69.519V70.1978Z" fill="white"/>
<path d="M91.6254 68.3129C92.0024 68.3129 92.3246 68.4308 92.5919 68.6668C92.864 68.9027 93 69.1867 93 69.519V71.7939C93 72.1261 92.864 72.4102 92.5919 72.6461C92.3246 72.882 92.0024 73 91.6254 73H88.919C88.542 73 88.2174 72.882 87.9454 72.6461C87.6781 72.4102 87.5444 72.1261 87.5444 71.7939V69.519C87.5444 69.1867 87.6781 68.9027 87.9454 68.6668C88.2174 68.4308 88.542 68.3129 88.919 68.3129H91.6254ZM91.9977 71.7939V69.519C91.9977 69.4227 91.9595 69.3408 91.8831 69.2734C91.8115 69.206 91.7256 69.1723 91.6254 69.1723H88.919C88.8522 69.1723 88.7902 69.1892 88.7329 69.2229C88.6756 69.2517 88.6303 69.2927 88.5969 69.3456C88.5635 69.3986 88.5468 69.4564 88.5468 69.519V71.7939C88.5468 71.8854 88.5825 71.9648 88.6541 72.0322C88.7257 72.0996 88.814 72.1333 88.919 72.1333H91.6254C91.6922 72.1333 91.7542 72.1189 91.8115 72.09C91.8688 72.0611 91.9141 72.0202 91.9475 71.9672C91.981 71.9143 91.9977 71.8565 91.9977 71.7939Z" fill="white"/>
</svg>
