<svg width="507" height="145" viewBox="0 0 507 145" fill="none" xmlns="http://www.w3.org/2000/svg">
<path d="M4.18397 41.4284V0.753119H32.4553V6.03526H11.1953V18.5203H30.0523V23.8025H11.1953V41.4284H4.18397ZM35.8351 21.0908C35.8351 8.04078 43.6945 0.0751953 55.7381 0.0751953C67.7817 0.0751953 75.6412 8.04078 75.6412 21.0908C75.6412 34.1408 67.7817 42.1064 55.7381 42.1064C43.6945 42.1064 35.8351 34.1408 35.8351 21.0908ZM42.8181 21.0908C42.8181 30.8642 47.7939 36.7112 55.7381 36.7112C63.6824 36.7112 68.6582 30.8642 68.6582 21.0908C68.6582 11.3174 63.6824 5.47033 55.7381 5.47033C47.7939 5.47033 42.8181 11.3174 42.8181 21.0908ZM81.8684 26.5424V0.753119H88.8797V26.9096C88.8797 33.3781 92.3854 36.7112 98.6334 36.7112C104.881 36.7112 108.415 33.3781 108.415 26.9096V0.753119H115.427V26.5424C115.427 36.231 109.574 42.1064 98.6334 42.1064C87.862 42.1064 81.8684 36.231 81.8684 26.5424ZM123.509 41.4284V0.753119H130.944L149.632 30.7229H150.197V0.753119H156.926V41.4284H149.519L130.831 11.4586H130.266V41.4284H123.509ZM165.309 41.4284V0.753119H180.208C192.42 0.753119 200.11 8.60572 200.11 21.0908C200.11 33.5759 192.42 41.4284 180.208 41.4284H165.309ZM180.095 6.03526H172.32V36.1463H180.095C188.265 36.1463 193.099 30.4122 193.099 21.0908C193.099 11.7694 188.265 6.03526 180.095 6.03526ZM208.748 41.4284H201.85V40.581L216.777 0.753119H224.524L239.423 40.581V41.4284H232.496L228.821 31.1749H212.395L208.748 41.4284ZM220.339 8.46448L214.12 25.921H227.096L220.905 8.46448H220.339ZM236.631 6.09176V0.753119H271.999V6.09176H257.806V41.4284H250.823V6.09176H236.631ZM277.18 41.4284V0.753119H284.191V41.4284H277.18ZM290.72 21.0908C290.72 8.04078 298.579 0.0751953 310.623 0.0751953C322.667 0.0751953 330.526 8.04078 330.526 21.0908C330.526 34.1408 322.667 42.1064 310.623 42.1064C298.579 42.1064 290.72 34.1408 290.72 21.0908ZM297.703 21.0908C297.703 30.8642 302.679 36.7112 310.623 36.7112C318.567 36.7112 323.543 30.8642 323.543 21.0908C323.543 11.3174 318.567 5.47033 310.623 5.47033C302.679 5.47033 297.703 11.3174 297.703 21.0908ZM337.036 41.4284V0.753119H344.471L363.159 30.7229H363.724V0.753119H370.453V41.4284H363.046L344.358 11.4586H343.793V41.4284H337.036ZM394.186 41.4284V0.753119H422.457V6.03526H401.197V18.5203H420.054V23.8025H401.197V41.4284H394.186ZM425.836 21.0908C425.836 8.04078 433.696 0.0751953 445.74 0.0751953C457.783 0.0751953 465.643 8.04078 465.643 21.0908C465.643 34.1408 457.783 42.1064 445.74 42.1064C433.696 42.1064 425.836 34.1408 425.836 21.0908ZM432.819 21.0908C432.819 30.8642 437.795 36.7112 445.74 36.7112C453.684 36.7112 458.66 30.8642 458.66 21.0908C458.66 11.3174 453.684 5.47033 445.74 5.47033C437.795 5.47033 432.819 11.3174 432.819 21.0908ZM503.138 30.6382L503.59 34.9599C503.901 37.6151 504.297 39.084 505.315 40.581V41.4284H498.162C497.342 39.8466 496.918 38.3495 496.692 35.4401L496.381 31.7681C495.985 26.9379 493.921 24.9041 487.645 24.9041H479.164V41.4284H472.153V0.753119H490.812C498.586 0.753119 504.608 4.34046 504.608 11.9388C504.608 17.6164 501.357 20.7801 496.946 21.8534V22.4184C501.244 23.5483 502.629 26.0622 503.138 30.6382ZM490.048 6.03526H479.164V19.6502H490.048C494.685 19.6502 497.795 17.4187 497.795 12.8427C497.795 8.26676 494.685 6.03526 490.048 6.03526ZM1.01758 56.9359V51.5973H36.3851V56.9359H22.1928V92.2726H15.2098V56.9359H1.01758ZM41.5663 92.2726V51.5973H48.5776V69.0255H67.6042V51.5973H74.5872V92.2726H67.6042V74.4207H48.5776V92.2726H41.5663ZM82.9793 92.2726V51.5973H112.042V56.8794H89.9906V68.7996H109.215V74.0535H89.9906V86.9905H112.608V92.2726H82.9793ZM134.276 92.2726V51.5973H162.548V56.8794H141.288V69.3645H160.145V74.6466H141.288V92.2726H134.276ZM167.953 77.3866V51.5973H174.964V77.7538C174.964 84.2223 178.469 87.5554 184.717 87.5554C190.965 87.5554 194.499 84.2223 194.499 77.7538V51.5973H201.511V77.3866C201.511 87.0752 195.658 92.9505 184.717 92.9505C173.946 92.9505 167.953 87.0752 167.953 77.3866ZM206.426 56.9359V51.5973H241.794V56.9359H227.601V92.2726H220.618V56.9359H206.426ZM246.692 77.3866V51.5973H253.703V77.7538C253.703 84.2223 257.209 87.5554 263.457 87.5554C269.705 87.5554 273.239 84.2223 273.239 77.7538V51.5973H280.25V77.3866C280.25 87.0752 274.398 92.9505 263.457 92.9505C252.686 92.9505 246.692 87.0752 246.692 77.3866ZM319.319 81.4823L319.772 85.8041C320.083 88.4593 320.478 89.9281 321.496 91.4252V92.2726H314.344C313.524 90.6908 313.1 89.1937 312.873 86.2843L312.562 82.6122C312.167 77.782 310.103 75.7483 303.827 75.7483H295.345V92.2726H288.334V51.5973H306.993C314.768 51.5973 320.789 55.1846 320.789 62.783C320.789 68.4606 317.538 71.6242 313.128 72.6976V73.2625C317.425 74.3924 318.81 76.9064 319.319 81.4823ZM306.23 56.8794H295.345V70.4944H306.23C310.866 70.4944 313.976 68.2629 313.976 63.6869C313.976 59.1109 310.866 56.8794 306.23 56.8794ZM327.482 92.2726V51.5973H356.545V56.8794H334.494V68.7996H353.718V74.0535H334.494V86.9905H357.111V92.2726H327.482ZM376.914 71.9349C376.914 58.8849 384.773 50.9194 396.817 50.9194C408.86 50.9194 416.72 58.8849 416.72 71.9349C416.72 84.9849 408.86 92.9505 396.817 92.9505C384.773 92.9505 376.914 84.9849 376.914 71.9349ZM383.897 71.9349C383.897 81.7083 388.873 87.5554 396.817 87.5554C404.761 87.5554 409.737 81.7083 409.737 71.9349C409.737 62.1616 404.761 56.3145 396.817 56.3145C388.873 56.3145 383.897 62.1616 383.897 71.9349ZM423.23 92.2726V51.5973H451.501V56.8794H430.241V69.3645H449.098V74.6466H430.241V92.2726H423.23ZM2.85522 113.26C2.85522 106.763 8.39641 101.792 18.3479 101.792C28.2712 101.792 34.0668 106.622 34.6322 113.655V114.503H28.045C27.7906 109.051 23.6912 106.876 18.461 106.876C13.2025 106.876 9.72516 109.136 9.72516 112.977C9.72516 116.791 12.8633 118.231 17.726 119.192L23.041 120.265C30.5612 121.762 35.5935 124.672 35.5935 131.705C35.5935 138.823 29.9675 143.766 19.5636 143.766C9.18801 143.766 2.65732 138.823 2.12016 131.649V130.801H8.76394C9.41418 136.338 13.8528 138.682 19.5071 138.682C25.1613 138.682 28.7235 136.338 28.7235 132.157C28.7235 128.033 25.3592 126.79 20.2704 125.745L14.9554 124.672C7.66135 123.231 2.85522 119.757 2.85522 113.26ZM41.8424 143.117V102.441H60.0209C67.5128 102.441 73.4498 106.707 73.4498 114.39C73.4498 122.101 67.5128 126.423 60.0209 126.423H48.8537V143.117H41.8424ZM58.6639 107.724H48.8537V121.169H58.6639C63.3569 121.169 66.5233 118.825 66.5233 114.446C66.5233 110.04 63.3569 107.724 58.6639 107.724ZM77.414 122.779C77.414 109.729 85.2734 101.764 97.317 101.764C109.361 101.764 117.22 109.729 117.22 122.779C117.22 135.829 109.361 143.795 97.317 143.795C85.2734 143.795 77.414 135.829 77.414 122.779ZM84.397 122.779C84.397 132.552 89.3726 138.4 97.317 138.4C105.261 138.4 110.237 132.552 110.237 122.779C110.237 113.006 105.261 107.159 97.317 107.159C89.3726 107.159 84.397 113.006 84.397 122.779ZM154.715 132.326L155.168 136.648C155.479 139.303 155.874 140.772 156.892 142.269V143.117H149.74C148.92 141.535 148.496 140.038 148.269 137.128L147.958 133.456C147.563 128.626 145.499 126.592 139.223 126.592H130.741V143.117H123.73V102.441H142.389C150.164 102.441 156.185 106.029 156.185 113.627C156.185 119.305 152.934 122.468 148.524 123.542V124.107C152.821 125.237 154.206 127.751 154.715 132.326ZM141.626 107.724H130.741V121.339H141.626C146.262 121.339 149.372 119.107 149.372 114.531C149.372 109.955 146.262 107.724 141.626 107.724ZM159.216 107.78V102.441H194.584V107.78H180.391V143.117H173.408V107.78H159.216ZM197.828 113.26C197.828 106.763 203.369 101.792 213.321 101.792C223.244 101.792 229.039 106.622 229.605 113.655V114.503H223.018C222.763 109.051 218.664 106.876 213.434 106.876C208.175 106.876 204.698 109.136 204.698 112.977C204.698 116.791 207.836 118.231 212.699 119.192L218.014 120.265C225.534 121.762 230.566 124.672 230.566 131.705C230.566 138.823 224.94 143.766 214.536 143.766C204.161 143.766 197.63 138.823 197.093 131.649V130.801H203.737C204.387 136.338 208.825 138.682 214.48 138.682C220.134 138.682 223.696 136.338 223.696 132.157C223.696 128.033 220.332 126.79 215.243 125.745L209.928 124.672C202.634 123.231 197.828 119.757 197.828 113.26Z" fill="white"/>
</svg>
