<svg width="205" height="112" viewBox="0 0 205 112" fill="none" xmlns="http://www.w3.org/2000/svg">
<path d="M9.91272 84.114V3.90094L0 2.9257V1.95047H29.7382V2.9257L19.221 3.90094V84.6016H45.937C47.8712 84.6016 49.2815 84.3172 50.168 83.7483C51.0545 83.0982 51.8604 81.8791 52.5858 80.0912L60.8061 59.2455L62.2567 59.4893L59.2345 86.0645H0V85.0893L9.91272 84.114Z" fill="white"/>
<path d="M111.217 84.8455C107.268 86.9585 102.795 88.015 97.7984 88.015C94.0106 88.015 90.3437 87.4054 86.7977 86.1864C83.2517 85.0486 80.2295 83.4232 77.7312 81.3102L75.1926 88.015H73.621L72.0495 58.8798L73.1375 58.636C74.3463 64.1623 75.5552 68.4696 76.7641 71.5579C78.0535 74.6461 79.7057 77.328 81.7204 79.6036C85.8306 84.2359 91.2705 86.5521 98.0402 86.5521C103.843 86.5521 108.356 85.0486 111.579 82.0416C114.884 78.9534 116.536 74.8087 116.536 69.6074C116.536 65.9503 115.649 62.862 113.876 60.3427C112.184 57.8233 109.847 55.6697 106.865 53.8817C103.883 52.0938 99.6923 50.0214 94.2927 47.6646C89.8602 45.7141 86.153 43.8043 83.1711 41.9351C80.1892 39.9846 77.6909 37.5059 75.6761 34.4989C73.7419 31.4107 72.7748 27.6723 72.7748 23.2837C72.7748 18.8139 73.8225 14.8317 75.9179 11.3371C78.0938 7.76125 81.0354 4.99808 84.7426 3.04761C88.5304 1.01587 92.8017 0 97.5566 0C100.861 0 103.923 0.568887 106.744 1.70666C109.645 2.84443 112.748 4.71364 116.052 7.31426L118.954 1.46286H120.525L121.734 28.038L120.525 28.4037C119.236 22.9587 117.584 18.1638 115.569 14.019C111.539 5.64824 105.374 1.46286 97.0731 1.46286C92.0764 1.46286 88.0871 2.92571 85.1053 5.85141C82.1234 8.69584 80.6325 12.5968 80.6325 17.5542C80.6325 21.1301 81.4384 24.1371 83.0502 26.5752C84.7426 29.0132 87.0395 31.1262 89.9407 32.9142C92.9226 34.7021 97.1134 36.8558 102.513 39.3751C107.348 41.5694 111.217 43.6418 114.118 45.5922C117.1 47.5427 119.477 49.9808 121.25 52.9065C123.104 55.7509 124.031 59.2862 124.031 63.5122C124.031 68.2258 122.903 72.4518 120.646 76.1902C118.389 79.8474 115.246 82.7324 111.217 84.8455Z" fill="white"/>
<path d="M184.69 83.9921C188.155 82.448 191.056 80.3756 193.393 77.775C197.342 73.3052 200.324 66.6411 202.339 57.7827L203.911 58.0265V86.0645H202.339L198.229 79.3597C194.602 82.0416 190.653 84.1547 186.382 85.6988C182.191 87.2429 178.121 88.015 174.172 88.015C167.161 88.015 160.714 86.0645 154.831 82.1636C149.028 78.2626 144.434 72.9801 141.049 66.316C137.745 59.5706 136.093 52.1344 136.093 44.0075C136.093 35.9618 137.745 28.5663 141.049 21.8209C144.434 15.0755 149.028 9.75235 154.831 5.85141C160.633 1.95047 167 0 173.931 0C177.557 0 181.264 0.609521 185.052 1.82856C188.921 2.96634 193.192 4.7949 197.866 7.31426L200.768 1.46286H202.339L203.548 28.8913L201.855 29.379C200.727 23.1212 198.954 17.9606 196.536 13.8971C194.119 9.91489 190.976 6.86728 187.107 4.75427C183.239 2.55999 178.968 1.46286 174.293 1.46286C165.751 1.46286 159.182 5.16062 154.589 12.5561C149.995 19.9517 147.698 30.4355 147.698 44.0075C147.698 57.4982 149.995 67.9414 154.589 75.3369C159.182 82.6512 165.71 86.3083 174.172 86.3083C177.799 86.3083 181.305 85.5362 184.69 83.9921Z" fill="white"/>
<path d="M4.50875 109.711H10.9086V111.759H4.50875C3.74646 111.759 3.09225 111.53 2.54612 111.071C2.01138 110.6 1.744 110.038 1.744 109.384V101.003H4.13329V109.384C4.13329 109.476 4.16743 109.556 4.23569 109.625C4.31534 109.682 4.40636 109.711 4.50875 109.711Z" fill="white"/>
<path d="M15.2383 103.102C15.1018 103.102 14.988 103.143 14.897 103.223C14.806 103.303 14.7604 103.395 14.7604 103.498V105.374H22.5768V107.439H14.7604V109.315C14.7604 109.43 14.806 109.527 14.897 109.608C14.988 109.688 15.1018 109.728 15.2383 109.728H24.0616V111.776H15.2383C14.7149 111.776 14.2314 111.667 13.7877 111.449C13.3553 111.231 13.0083 110.933 12.7466 110.554C12.4963 110.176 12.3712 109.763 12.3712 109.315V103.498C12.3712 102.821 12.6499 102.248 13.2074 101.777C13.7649 101.295 14.4419 101.054 15.2383 101.054H24.0616V103.102H15.2383Z" fill="white"/>
<path d="M34.2624 101.674L39.9455 111.88H37.3002L36.0544 109.659H29.0571L27.7089 111.88H25.0124L31.2246 101.622C31.3839 101.381 31.6 101.192 31.8731 101.054C32.1461 100.905 32.442 100.836 32.7605 100.848C33.0905 100.848 33.3863 100.922 33.648 101.072C33.9211 101.221 34.1258 101.422 34.2624 101.674ZM30.303 107.611H34.9109L32.7093 103.636L30.303 107.611Z" fill="white"/>
<path d="M46.2918 105.374H52.777V109.195C52.777 109.677 52.6348 110.124 52.3503 110.537C52.0773 110.939 51.7018 111.26 51.224 111.501C50.7461 111.73 50.2284 111.845 49.6709 111.845H43.8854C43.3279 111.845 42.8102 111.73 42.3324 111.501C41.8545 111.26 41.4734 110.939 41.1889 110.537C40.9159 110.124 40.7793 109.677 40.7793 109.195V103.67C40.7793 102.936 41.0808 102.311 41.6838 101.794C42.2982 101.267 43.0321 101.003 43.8854 101.003H49.4661C50.035 101.003 50.5527 101.123 51.0192 101.364C51.497 101.594 51.8725 101.915 52.1455 102.328C52.43 102.741 52.5722 103.188 52.5722 103.67V103.928H50.1829V103.67C50.1829 103.556 50.1488 103.452 50.0805 103.361C50.0236 103.269 49.9383 103.194 49.8245 103.137C49.7221 103.079 49.6026 103.051 49.4661 103.051H43.8854C43.692 103.051 43.5213 103.114 43.3734 103.24C43.2369 103.355 43.1686 103.498 43.1686 103.67V109.178C43.1686 109.35 43.2369 109.499 43.3734 109.625C43.5213 109.74 43.692 109.797 43.8854 109.797H49.6709C49.8643 109.797 50.0293 109.74 50.1658 109.625C50.3137 109.499 50.3877 109.35 50.3877 109.178V107.439H46.2918V105.374Z" fill="white"/>
<path d="M64.67 101.003H67.0593V109.195C67.0593 109.929 66.735 110.554 66.0865 111.071C65.4494 111.587 64.6757 111.845 63.7655 111.845H58.2872C57.377 111.845 56.5976 111.587 55.9491 111.071C55.3119 110.554 54.9934 109.929 54.9934 109.195V101.003H57.3826V109.195C57.3826 109.355 57.4737 109.499 57.6557 109.625C57.8377 109.74 58.0482 109.797 58.2872 109.797H63.7655C64.0044 109.797 64.2149 109.74 64.3969 109.625C64.579 109.499 64.67 109.355 64.67 109.195V101.003Z" fill="white"/>
<path d="M72.238 103.102C72.1015 103.102 71.9877 103.143 71.8967 103.223C71.8056 103.303 71.7601 103.395 71.7601 103.498V105.374H79.5765V107.439H71.7601V109.315C71.7601 109.43 71.8056 109.527 71.8967 109.608C71.9877 109.688 72.1015 109.728 72.238 109.728H81.0613V111.776H72.238C71.7146 111.776 71.2311 111.667 70.7874 111.449C70.355 111.231 70.008 110.933 69.7463 110.554C69.496 110.176 69.3708 109.763 69.3708 109.315V103.498C69.3708 102.821 69.6496 102.248 70.2071 101.777C70.7646 101.295 71.4416 101.054 72.238 101.054H81.0613V103.102H72.238Z" fill="white"/>
<path d="M100.155 104.083H97.7656V103.55C97.7656 103.435 97.703 103.338 97.5778 103.257C97.4527 103.166 97.3104 103.12 97.1512 103.12H91.8265C91.6558 103.12 91.5079 103.166 91.3827 103.257C91.2689 103.338 91.2121 103.435 91.2121 103.55V103.584C91.2121 103.745 91.3088 103.865 91.5022 103.946L98.5506 107.216C99.0285 107.434 99.4039 107.738 99.677 108.128C99.95 108.518 100.092 108.937 100.104 109.384C100.104 110.05 99.8249 110.623 99.2674 111.105C98.6758 111.621 97.9533 111.88 97.1 111.88H91.8265C91.0186 111.88 90.3189 111.644 89.7273 111.174C89.1243 110.681 88.8228 110.084 88.8228 109.384V108.919H91.2121V109.384C91.2121 109.499 91.2633 109.596 91.3657 109.677C91.4908 109.78 91.6444 109.832 91.8265 109.832H97.1C97.282 109.832 97.4356 109.774 97.5608 109.659C97.6518 109.579 97.6973 109.487 97.6973 109.384C97.6973 109.235 97.6063 109.114 97.4242 109.023L90.3587 105.753C89.8809 105.535 89.5054 105.231 89.2324 104.841C88.9593 104.451 88.8228 104.032 88.8228 103.584V103.55C88.8228 103.102 88.9536 102.689 89.2153 102.311C89.4884 101.921 89.8524 101.617 90.3075 101.399C90.774 101.181 91.2803 101.072 91.8265 101.072H97.1512C97.9817 101.072 98.6871 101.318 99.2674 101.812C99.859 102.294 100.155 102.873 100.155 103.55V104.083Z" fill="white"/>
<path d="M111.307 101.003C111.797 101.003 112.246 101.112 112.656 101.33C113.077 101.548 113.407 101.846 113.646 102.225C113.884 102.592 114.004 102.999 114.004 103.447V105.942C114.004 106.39 113.884 106.803 113.646 107.181C113.407 107.548 113.077 107.841 112.656 108.059C112.246 108.277 111.797 108.386 111.307 108.386H104.634V111.845H102.245V101.003H111.307ZM111.615 105.942V103.447C111.615 103.343 111.581 103.252 111.512 103.171C111.455 103.091 111.387 103.051 111.307 103.051H104.634V106.338H111.307C111.387 106.338 111.455 106.303 111.512 106.235C111.581 106.154 111.615 106.057 111.615 105.942Z" fill="white"/>
<path d="M125.599 100.831C126.497 100.831 127.265 101.112 127.903 101.674C128.551 102.236 128.875 102.913 128.875 103.705V109.126C128.875 109.918 128.551 110.595 127.903 111.157C127.265 111.719 126.497 112 125.599 112H119.147C118.249 112 117.475 111.719 116.826 111.157C116.189 110.595 115.871 109.918 115.871 109.126V103.705C115.871 102.913 116.189 102.236 116.826 101.674C117.475 101.112 118.249 100.831 119.147 100.831H125.599ZM126.486 109.126V103.705C126.486 103.475 126.395 103.28 126.213 103.12C126.042 102.959 125.837 102.879 125.599 102.879H119.147C118.988 102.879 118.84 102.919 118.704 102.999C118.567 103.068 118.459 103.166 118.379 103.292C118.3 103.418 118.26 103.556 118.26 103.705V109.126C118.26 109.344 118.345 109.533 118.516 109.694C118.687 109.854 118.897 109.935 119.147 109.935H125.599C125.758 109.935 125.906 109.9 126.042 109.832C126.179 109.763 126.287 109.665 126.367 109.539C126.446 109.413 126.486 109.275 126.486 109.126Z" fill="white"/>
<path d="M141.067 107.956L143.763 111.88H140.981L138.353 108.042H133.643V111.845H131.253V101.003H140.316C141.055 101.003 141.687 101.232 142.21 101.691C142.745 102.15 143.012 102.701 143.012 103.343V105.701C143.012 106.229 142.83 106.699 142.466 107.112C142.102 107.525 141.635 107.806 141.067 107.956ZM140.623 105.701V103.343C140.623 103.263 140.589 103.194 140.52 103.137C140.464 103.079 140.395 103.051 140.316 103.051H133.643V105.994H140.316C140.395 105.994 140.464 105.965 140.52 105.908C140.589 105.85 140.623 105.781 140.623 105.701Z" fill="white"/>
<path d="M144.444 101.037H156.544V103.085H151.748V111.828H149.359V103.085H144.444V101.037Z" fill="white"/>
<path d="M169.034 104.083H166.644V103.55C166.644 103.435 166.582 103.338 166.457 103.257C166.331 103.166 166.189 103.12 166.03 103.12H160.705C160.535 103.12 160.387 103.166 160.262 103.257C160.148 103.338 160.091 103.435 160.091 103.55V103.584C160.091 103.745 160.188 103.865 160.381 103.946L167.429 107.216C167.907 107.434 168.283 107.738 168.556 108.128C168.829 108.518 168.971 108.937 168.982 109.384C168.982 110.05 168.704 110.623 168.146 111.105C167.555 111.621 166.832 111.88 165.979 111.88H160.705C159.897 111.88 159.198 111.644 158.606 111.174C158.003 110.681 157.702 110.084 157.702 109.384V108.919H160.091V109.384C160.091 109.499 160.142 109.596 160.244 109.677C160.37 109.78 160.523 109.832 160.705 109.832H165.979C166.161 109.832 166.314 109.774 166.44 109.659C166.531 109.579 166.576 109.487 166.576 109.384C166.576 109.235 166.485 109.114 166.303 109.023L159.238 105.753C158.76 105.535 158.384 105.231 158.111 104.841C157.838 104.451 157.702 104.032 157.702 103.584V103.55C157.702 103.102 157.832 102.689 158.094 102.311C158.367 101.921 158.731 101.617 159.186 101.399C159.653 101.181 160.159 101.072 160.705 101.072H166.03C166.861 101.072 167.566 101.318 168.146 101.812C168.738 102.294 169.034 102.873 169.034 103.55V104.083Z" fill="white"/>
<path d="M189.864 105.323H187.475V103.705C187.475 103.533 187.367 103.384 187.151 103.257C186.946 103.12 186.701 103.051 186.417 103.051H180.58C180.443 103.051 180.307 103.074 180.17 103.12C180.045 103.154 179.931 103.2 179.829 103.257C179.738 103.315 179.664 103.384 179.607 103.464C179.55 103.544 179.522 103.624 179.522 103.705V109.178C179.522 109.35 179.63 109.505 179.846 109.642C180.062 109.768 180.307 109.832 180.58 109.832H186.417C186.701 109.832 186.946 109.768 187.151 109.642C187.367 109.505 187.475 109.35 187.475 109.178V107.491H189.864V109.178C189.864 109.923 189.523 110.56 188.84 111.088C188.169 111.616 187.361 111.88 186.417 111.88H180.58C179.636 111.88 178.822 111.616 178.14 111.088C177.468 110.56 177.133 109.923 177.133 109.178V103.705C177.133 102.959 177.468 102.322 178.14 101.794C178.822 101.267 179.636 101.003 180.58 101.003H186.417C187.361 101.003 188.169 101.267 188.84 101.794C189.523 102.322 189.864 102.959 189.864 103.705V105.323Z" fill="white"/>
<path d="M201.723 100.831C202.622 100.831 203.39 101.112 204.027 101.674C204.676 102.236 205 102.913 205 103.705V109.126C205 109.918 204.676 110.595 204.027 111.157C203.39 111.719 202.622 112 201.723 112H195.272C194.373 112 193.6 111.719 192.951 111.157C192.314 110.595 191.995 109.918 191.995 109.126V103.705C191.995 102.913 192.314 102.236 192.951 101.674C193.6 101.112 194.373 100.831 195.272 100.831H201.723ZM202.611 109.126V103.705C202.611 103.475 202.52 103.28 202.338 103.12C202.167 102.959 201.962 102.879 201.723 102.879H195.272C195.113 102.879 194.965 102.919 194.828 102.999C194.692 103.068 194.584 103.166 194.504 103.292C194.425 103.418 194.385 103.556 194.385 103.705V109.126C194.385 109.344 194.47 109.533 194.641 109.694C194.811 109.854 195.022 109.935 195.272 109.935H201.723C201.883 109.935 202.03 109.9 202.167 109.832C202.304 109.763 202.412 109.665 202.491 109.539C202.571 109.413 202.611 109.275 202.611 109.126Z" fill="white"/>
</svg>
