<svg width="280" height="97" viewBox="0 0 280 97" fill="none" xmlns="http://www.w3.org/2000/svg">
<g clip-path="url(#clip0_113_48)">
<path d="M49.2873 0H24.6436V24.2509H49.2873V0Z" fill="white"/>
<path d="M73.9308 0H49.2871V24.2509H73.9308V0Z" fill="white"/>
<path d="M24.6437 24.2471H0V48.498H24.6437V24.2471Z" fill="white"/>
<path d="M24.6437 0H0V24.2509H24.6437V0Z" fill="white"/>
<path d="M49.2873 48.5039H24.6436V72.7548H49.2873V48.5039Z" fill="white"/>
<path d="M24.6437 72.751H0V97.0019H24.6437V72.751Z" fill="white"/>
<path d="M114.716 38.9493V10.6826H133.926V13.4253H117.762V24.1848H133.283V26.9711H117.762V38.9529H114.716V38.9493Z" fill="white"/>
<path d="M137.182 30.6428V18.1118H140.268V30.2209C140.268 34.735 142.113 36.7174 146.271 36.7174C150.174 36.7174 152.832 34.6913 152.832 29.799V18.1118H155.878V38.9544H153.091V34.3567H152.961C152.104 36.761 149.701 39.3764 145.288 39.3764C139.758 39.3764 137.185 35.6225 137.185 30.6428H137.182Z" fill="white"/>
<path d="M162.134 33.0532V20.7331H158.574V18.1178H162.174L162.903 12.7998H165.217V18.1178H171.907V20.7331H165.217V33.2241C165.217 35.6721 166.374 36.2214 169.12 36.2214H171.907V38.6694C171.179 38.7967 169.848 39.0077 168.307 39.0077C164.403 39.0077 162.134 37.4872 162.134 33.0568V33.0532Z" fill="white"/>
<path d="M174.862 30.6428V18.1118H177.949V30.2209C177.949 34.735 179.793 36.7174 183.952 36.7174C187.855 36.7174 190.513 34.6913 190.513 29.799V18.1118H193.559V38.9544H190.771V34.3567H190.642C189.785 36.761 187.382 39.3764 182.968 39.3764C177.439 39.3764 174.866 35.6225 174.866 30.6428H174.862Z" fill="white"/>
<path d="M198.412 38.9447V17.8475H201.199V21.3504H201.414C202.101 19.408 204.156 17.6802 207.287 17.6802C211.66 17.6802 213.334 20.7611 213.334 24.3476V25.5298H210.248V24.8132C210.248 21.565 209.22 20.2991 206.174 20.2991C202.874 20.2991 201.502 21.776 201.502 25.1515V38.9484H198.416L198.412 38.9447Z" fill="white"/>
<path d="M215.597 28.5234C215.597 22.1943 219.411 17.6802 225.459 17.6802C230.56 17.6802 234.762 20.7175 234.762 26.8793C234.762 27.8505 234.677 28.778 234.548 29.3673H218.513C218.642 33.9651 220.487 36.6677 225.544 36.6677C229.831 36.6677 231.547 34.7689 231.547 32.2373V31.9826H234.592V32.2773C234.592 36.2858 230.903 39.3667 225.503 39.3667C218.986 39.3667 215.597 34.8526 215.597 28.5234ZM218.513 27.1739H231.846C232.016 22.2379 229.532 20.2955 225.37 20.2955C220.653 20.2955 218.768 22.9545 218.509 27.1739H218.513Z" fill="white"/>
<path d="M245.995 28.5234C245.995 22.1943 250.069 17.6802 256.286 17.6802C262.503 17.6802 266.406 22.1943 266.406 28.5234C266.406 34.8526 262.462 39.3667 256.286 39.3667C250.109 39.3667 245.995 34.8526 245.995 28.5234ZM263.405 28.5234C263.405 23.3328 261.39 20.4228 256.286 20.4228C251.181 20.4228 249.041 23.3328 249.041 28.5234C249.041 33.7141 251.1 36.6677 256.286 36.6677C261.472 36.6677 263.405 33.7141 263.405 28.5234Z" fill="white"/>
<path d="M270.991 38.9493V20.722H267.86V18.1067H270.991V17.3064C270.991 13.0033 273.434 10.6826 278.11 10.6826H279.996V13.1706H277.552C275.109 13.1706 273.993 14.1818 273.993 16.2916V18.1067H279.996V20.722H274.037V38.9493H270.991Z" fill="white"/>
<path d="M114.065 75.8531V75.2202H117.111V75.6858C117.111 79.6106 119.211 82.0586 125.602 82.0586C130.363 82.0586 132.592 80.4981 132.592 77.2499C132.592 74.0016 131.135 72.9031 126.803 71.9756L121.828 70.877C117.326 69.9495 114.239 67.9234 114.239 63.3657C114.239 59.2736 117.669 55.7271 124.485 55.7271C131.945 55.7271 135.205 60.2011 135.205 64.7989V65.3481H132.159V64.8825C132.159 61.0014 130.1 58.5097 124.441 58.5097C119.68 58.5097 117.322 60.0702 117.322 63.1511C117.322 66.232 118.908 67.2869 123.11 68.2581L128.086 69.3966C132.847 70.4515 135.674 72.6448 135.674 77.0753C135.674 81.5057 132.289 84.8376 125.513 84.8376C117.536 84.8376 114.065 80.7018 114.065 75.8494V75.8531Z" fill="white"/>
<path d="M139.665 91.7643V63.5777H142.452V67.6298H142.581C143.524 64.9709 146.056 63.1558 150.041 63.1558C155.999 63.1558 159.304 67.4189 159.304 74.0427C159.304 80.6665 156.173 84.8459 150.385 84.8459C146.311 84.8459 143.694 82.7362 142.752 80.4591V91.768H139.665V91.7643ZM149.527 82.2269C153.645 82.2269 156.217 80.3718 156.217 74.0427C156.217 67.7135 153.689 65.7711 149.527 65.7711C145.365 65.7711 142.752 67.9245 142.752 72.2276V75.8141C142.752 80.0772 145.324 82.2269 149.527 82.2269Z" fill="white"/>
<path d="M162.388 73.999C162.388 67.6698 166.461 63.1558 172.678 63.1558C178.896 63.1558 182.799 67.6698 182.799 73.999C182.799 80.3282 178.855 84.8423 172.678 84.8423C166.502 84.8423 162.388 80.3282 162.388 73.999ZM179.798 73.999C179.798 68.8084 177.783 65.8984 172.678 65.8984C167.574 65.8984 165.434 68.8084 165.434 73.999C165.434 79.1897 167.492 82.1433 172.678 82.1433C177.864 82.1433 179.798 79.1897 179.798 73.999Z" fill="white"/>
<path d="M186.529 84.4203V63.3231H189.316V66.826H189.531C190.218 64.8836 192.273 63.1558 195.404 63.1558C199.777 63.1558 201.452 66.2367 201.452 69.8232V71.0054H198.365V70.2888C198.365 67.0406 197.337 65.7747 194.292 65.7747C190.991 65.7747 189.619 67.2515 189.619 70.6271V84.424H186.533L186.529 84.4203Z" fill="white"/>
<path d="M206.682 78.5185V66.1984H203.122V63.5831H206.722L207.451 58.2651H209.764V63.5831H216.455V66.1984H209.764V78.6894C209.764 81.1375 210.921 81.6867 213.668 81.6867H216.455V84.1347C215.727 84.262 214.396 84.473 212.855 84.473C208.951 84.473 206.682 82.9525 206.682 78.5221V78.5185Z" fill="white"/>
<path d="M218.603 77.5829V77.4992H221.604V78.0048C221.604 80.8748 222.805 82.2679 227.607 82.2679C231.551 82.2679 232.582 81.1694 232.582 79.0597C232.582 76.95 231.252 76.1897 228.036 75.6005L224.52 75.0112C221.09 74.3783 218.603 72.8178 218.603 69.1476C218.603 65.4774 221.689 63.1567 226.705 63.1567C231.721 63.1567 235.111 65.6047 235.111 70.2861V70.4971H232.153V70.1588C232.153 67.6708 231.167 65.7721 226.624 65.7721C222.765 65.7721 221.563 66.9942 221.563 69.104C221.563 71.2137 222.635 71.9303 225.807 72.5232L229.407 73.1997C233.096 73.8763 235.539 75.4768 235.539 78.9397C235.539 82.6535 232.453 84.8469 227.563 84.8469C221.774 84.8469 218.603 82.4425 218.603 77.5902V77.5829Z" fill="white"/>
<path d="M95.7702 10.6826H94.0625V85.4905H95.7702V10.6826Z" fill="white"/>
</g>
<defs>
<clipPath id="clip0_113_48">
<rect width="280" height="97" fill="white"/>
</clipPath>
</defs>
</svg>
