<svg width="213" height="98" viewBox="0 0 213 98" fill="none" xmlns="http://www.w3.org/2000/svg">
<path d="M2.38381 43.1201V0.78411H31.6957V6.28191H9.65316V19.2767H29.2042V24.7745H9.65316V43.1201H2.38381ZM35.9286 12.0443C35.9286 5.28231 41.6737 0.10791 51.9915 0.10791C62.28 0.10791 68.2889 5.13531 68.8752 12.4559V13.3379H62.0455C61.7817 7.66371 57.5315 5.39991 52.1088 5.39991C46.6567 5.39991 43.0514 7.75191 43.0514 11.7503C43.0514 15.7193 46.305 17.2187 51.3466 18.2183L56.8573 19.3355C64.6543 20.8937 69.8718 23.9219 69.8718 31.2425C69.8718 38.6513 64.0387 43.7963 53.2519 43.7963C42.4944 43.7963 35.7234 38.6513 35.1665 31.1837V30.3017H42.0548C42.7289 36.0641 47.3309 38.5043 53.1933 38.5043C59.0557 38.5043 62.749 36.0641 62.749 31.7129C62.749 27.4205 59.2609 26.1269 53.9847 25.0391L48.4741 23.9219C40.9116 22.4225 35.9286 18.8063 35.9286 12.0443ZM76.3507 43.1201V0.78411H95.1983C102.966 0.78411 109.121 5.22351 109.121 13.2203C109.121 21.2465 102.966 25.7447 95.1983 25.7447H83.62V43.1201H76.3507ZM93.7913 6.28191H83.62V20.2763H93.7913C98.6571 20.2763 101.94 17.8361 101.94 13.2791C101.94 8.69271 98.6571 6.28191 93.7913 6.28191ZM0.449219 74.9309C0.449219 61.4069 8.51 52.9985 20.9969 52.9985C32.8096 52.9985 38.1737 60.3485 38.7599 66.7283V67.6103H31.9889C31.5199 63.6119 28.7352 58.6139 21.1141 58.6139C12.7602 58.6139 7.68926 64.9643 7.68926 74.9897C7.68926 84.9269 12.7309 91.1303 20.8503 91.1303C29.2042 91.1303 32.5165 85.4855 32.7803 79.2821H21.1728V73.9901H39.1703V96.0401H32.751V90.9245H32.1647C30.6405 93.0707 27.4748 96.6281 19.7658 96.6281C8.42206 96.6281 0.449219 88.3373 0.449219 74.9309ZM51.0279 96.0401H43.8758V95.1581L59.3525 53.7041H67.384L82.8314 95.1581V96.0401H75.6499L71.8394 85.3679H54.8092L51.0279 96.0401ZM63.0458 61.7303L56.5972 79.8995H70.0514L63.6321 61.7303H63.0458ZM88.4876 96.0401V53.7041H98.014L110.765 86.5733H111.351L124.131 53.7041H133.628V96.0401H126.916V64.6115H126.329L114.106 96.0401H108.039L95.8156 64.6115H95.2293V96.0401H88.4876ZM142.36 96.0401V53.7041H172.492V59.2019H149.629V71.6087H169.561V77.0771H149.629V90.5423H173.079V96.0401H142.36ZM178.252 64.9643C178.252 58.2023 183.997 53.0279 194.315 53.0279C204.603 53.0279 210.612 58.0553 211.198 65.3759V66.2579H204.368C204.105 60.5837 199.854 58.3199 194.432 58.3199C188.98 58.3199 185.374 60.6719 185.374 64.6703C185.374 68.6393 188.628 70.1387 193.67 71.1383L199.18 72.2555C206.977 73.8137 212.195 76.8419 212.195 84.1625C212.195 91.5713 206.362 96.7163 195.575 96.7163C184.818 96.7163 178.046 91.5713 177.49 84.1037V83.2217H184.378C185.052 88.9841 189.654 91.4243 195.516 91.4243C201.379 91.4243 205.072 88.9841 205.072 84.6329C205.072 80.3405 201.584 79.0469 196.308 77.9591L190.797 76.8419C183.235 75.3425 178.252 71.7263 178.252 64.9643Z" fill="white"/>
</svg>
