<svg width="17" height="17" viewBox="0 0 17 17" fill="none" xmlns="http://www.w3.org/2000/svg">
<path fill-rule="evenodd" clip-rule="evenodd" d="M4.95232 0.947266H11.926C14.3332 0.947266 16.2846 2.89861 16.2846 5.30572V12.2792C16.2846 14.6863 14.3332 16.6377 11.926 16.6377H4.95232C2.54515 16.6377 0.59375 14.6863 0.59375 12.2792V5.30572C0.59375 2.89861 2.54515 0.947266 4.95232 0.947266ZM12.5838 5.52228C13.0651 5.52228 13.4554 5.13201 13.4554 4.65059C13.4554 4.16917 13.0651 3.7789 12.5838 3.7789C12.1023 3.7789 11.712 4.16917 11.712 4.65059C11.712 5.13201 12.1023 5.52228 12.5838 5.52228ZM8.44011 4.86989C6.27363 4.86989 4.51736 6.6261 4.51736 8.79249C4.51736 10.9589 6.27363 12.7151 8.44011 12.7151C10.6065 12.7151 12.3628 10.9589 12.3628 8.79249C12.3651 7.75145 11.9526 6.75236 11.2165 6.01623C10.4802 5.2801 9.48115 4.86756 8.44011 4.86989ZM6.04276 8.79113C6.04276 10.1151 7.11603 11.1883 8.44001 11.1883C9.7639 11.1883 10.8372 10.1151 10.8372 8.79113C10.8372 7.46722 9.7639 6.39397 8.44001 6.39397C7.11603 6.39397 6.04276 7.46722 6.04276 8.79113Z" fill="white"/>
</svg>
