<svg width="86" height="47" viewBox="0 0 86 47" fill="none" xmlns="http://www.w3.org/2000/svg">
<path d="M4.15851 35.2978V1.637L0 1.22775V0.818499H12.4755V1.22775L8.06345 1.637V35.5025H19.2711C20.0825 35.5025 20.6742 35.3831 21.0461 35.1444C21.418 34.8715 21.7561 34.36 22.0604 33.6097L25.5089 24.862L26.1174 24.9643L24.8496 36.1163H0V35.7071L4.15851 35.2978Z" fill="white"/>
<path d="M46.6568 35.6048C45.0002 36.4915 43.1238 36.9348 41.0276 36.9348C39.4386 36.9348 37.9003 36.6791 36.4127 36.1675C34.9251 35.69 33.6572 35.008 32.6092 34.1213L31.5442 36.9348H30.8849L30.2256 24.7085L30.6821 24.6062C31.1892 26.9253 31.6963 28.7328 32.2035 30.0287C32.7444 31.3247 33.4375 32.4501 34.2827 33.4051C36.007 35.349 38.2891 36.321 41.129 36.321C43.5633 36.321 45.4566 35.69 46.809 34.4282C48.1951 33.1322 48.8882 31.3929 48.8882 29.2102C48.8882 27.6756 48.5163 26.3796 47.7725 25.3224C47.0625 24.2651 46.0821 23.3614 44.8311 22.6111C43.5802 21.8608 41.8221 20.9911 39.5569 20.0021C37.6974 19.1836 36.1422 18.3822 34.8913 17.5978C33.6403 16.7793 32.5923 15.7391 31.747 14.4772C30.9356 13.1813 30.5299 11.6125 30.5299 9.77085C30.5299 7.89512 30.9694 6.22402 31.8485 4.75753C32.7613 3.25695 33.9953 2.09741 35.5506 1.27891C37.1396 0.426302 38.9315 0 40.9262 0C42.3124 0 43.5971 0.238729 44.7804 0.716188C45.9975 1.19365 47.2992 1.97804 48.6854 3.06938L49.9025 0.613877H50.5617L51.0689 11.7659L50.5617 11.9194C50.0208 9.63444 49.3277 7.62229 48.4825 5.88297C46.792 2.37024 44.2057 0.613877 40.7233 0.613877C38.6272 0.613877 36.9536 1.22775 35.7027 2.4555C34.4518 3.64915 33.8263 5.28615 33.8263 7.36651C33.8263 8.86709 34.1644 10.1289 34.8406 11.1521C35.5506 12.1752 36.5141 13.0619 37.7312 13.8122C38.9822 14.5625 40.7402 15.4663 43.0054 16.5235C45.034 17.4443 46.6568 18.314 47.8739 19.1325C49.1249 19.951 50.1222 20.9741 50.866 22.2018C51.6436 23.3955 52.0324 24.879 52.0324 26.6524C52.0324 28.6305 51.5591 30.4039 50.6125 31.9727C49.6658 33.5074 48.3473 34.7181 46.6568 35.6048Z" fill="white"/>
<path d="M77.4795 35.2467C78.9333 34.5987 80.1504 33.7291 81.1309 32.6377C82.7875 30.762 84.0385 27.9654 84.8837 24.2481L85.543 24.3504V36.1163H84.8837L83.1594 33.3027C81.638 34.4282 79.9814 35.3149 78.1895 35.9629C76.4314 36.6109 74.7241 36.9348 73.0674 36.9348C70.1261 36.9348 67.4213 36.1163 64.9533 34.4793C62.519 32.8423 60.5919 30.6256 59.1719 27.829C57.7858 24.9984 57.0927 21.8778 57.0927 18.4674C57.0927 15.0911 57.7858 11.9876 59.1719 9.15698C60.5919 6.32633 62.519 4.0925 64.9533 2.4555C67.3875 0.8185 70.0584 0 72.966 0C74.4874 0 76.0426 0.255781 77.6317 0.767344C79.2545 1.2448 81.0464 2.01215 83.0073 3.06938L84.2244 0.613877H84.8837L85.3908 12.124L84.6808 12.3287C84.2075 9.70264 83.4637 7.53703 82.4494 5.83182C81.4352 4.16071 80.1166 2.8818 78.4938 1.99509C76.871 1.07428 75.0791 0.613877 73.1182 0.613877C69.5344 0.613877 66.779 2.16562 64.8519 5.2691C62.9247 8.37258 61.9612 12.772 61.9612 18.4674C61.9612 24.1287 62.9247 28.5111 64.8519 31.6146C66.779 34.684 69.5175 36.2187 73.0674 36.2187C74.5889 36.2187 76.0595 35.8947 77.4795 35.2467Z" fill="white"/>
<path d="M1.89148 46.0395H4.57631V46.8989H1.89148C1.57168 46.8989 1.29723 46.8026 1.06813 46.61C0.843796 46.4126 0.73163 46.1767 0.73163 45.9022V42.3851H1.73397V45.9022C1.73397 45.9408 1.74829 45.9745 1.77692 46.0034C1.81034 46.0274 1.84852 46.0395 1.89148 46.0395Z" fill="white"/>
<path d="M6.39265 43.2662C6.33538 43.2662 6.28765 43.283 6.24946 43.3167C6.21128 43.3504 6.19219 43.389 6.19219 43.4323V44.2195H9.47126V45.0862H6.19219V45.8734C6.19219 45.9215 6.21128 45.9624 6.24946 45.9961C6.28765 46.0298 6.33538 46.0467 6.39265 46.0467H10.0941V46.9061H6.39265C6.17309 46.9061 5.97024 46.8604 5.78409 46.7689C5.60272 46.6774 5.45714 46.5522 5.34736 46.3933C5.24235 46.2345 5.18985 46.0611 5.18985 45.8734V43.4323C5.18985 43.1482 5.30679 42.9075 5.54067 42.7101C5.77455 42.5079 6.05854 42.4068 6.39265 42.4068H10.0941V43.2662H6.39265Z" fill="white"/>
<path d="M14.3735 42.6668L16.7576 46.9494H15.6479L15.1252 46.0178H12.1898L11.6242 46.9494H10.493L13.0991 42.6451C13.1659 42.544 13.2566 42.4645 13.3711 42.4068C13.4857 42.3442 13.6098 42.3153 13.7434 42.3201C13.8819 42.3201 14.006 42.3514 14.1157 42.414C14.2303 42.4766 14.3162 42.5608 14.3735 42.6668ZM12.7125 45.1584H14.6455L13.722 43.4901L12.7125 45.1584Z" fill="white"/>
<path d="M19.42 44.2195H22.1406V45.8228C22.1406 46.025 22.0809 46.2128 21.9616 46.3861C21.847 46.5546 21.6895 46.6894 21.4891 46.7906C21.2886 46.8869 21.0714 46.935 20.8376 46.935H18.4105C18.1766 46.935 17.9594 46.8869 17.7589 46.7906C17.5585 46.6894 17.3986 46.5546 17.2793 46.3861C17.1647 46.2128 17.1074 46.025 17.1074 45.8228V43.5045C17.1074 43.1964 17.2339 42.934 17.4869 42.7173C17.7446 42.4958 18.0525 42.3851 18.4105 42.3851H20.7516C20.9903 42.3851 21.2075 42.4356 21.4032 42.5368C21.6036 42.6331 21.7611 42.7679 21.8757 42.9412C21.995 43.1145 22.0547 43.3023 22.0547 43.5045V43.6129H21.0523V43.5045C21.0523 43.4564 21.038 43.413 21.0094 43.3745C20.9855 43.336 20.9497 43.3047 20.902 43.2806C20.859 43.2566 20.8089 43.2445 20.7516 43.2445H18.4105C18.3293 43.2445 18.2577 43.271 18.1957 43.324C18.1384 43.3721 18.1098 43.4323 18.1098 43.5045V45.8156C18.1098 45.8878 18.1384 45.9504 18.1957 46.0034C18.2577 46.0515 18.3293 46.0756 18.4105 46.0756H20.8376C20.9187 46.0756 20.9879 46.0515 21.0452 46.0034C21.1072 45.9504 21.1383 45.8878 21.1383 45.8156V45.0862H19.42V44.2195Z" fill="white"/>
<path d="M27.1298 42.3851H28.1322V45.8228C28.1322 46.1309 27.9962 46.3933 27.7241 46.61C27.4568 46.8267 27.1322 46.935 26.7504 46.935H24.4522C24.0703 46.935 23.7434 46.8267 23.4713 46.61C23.204 46.3933 23.0704 46.1309 23.0704 45.8228V42.3851H24.0727V45.8228C24.0727 45.8902 24.1109 45.9504 24.1873 46.0034C24.2636 46.0515 24.3519 46.0756 24.4522 46.0756H26.7504C26.8506 46.0756 26.9389 46.0515 27.0153 46.0034C27.0917 45.9504 27.1298 45.8902 27.1298 45.8228V42.3851Z" fill="white"/>
<path d="M30.3047 43.2662C30.2474 43.2662 30.1997 43.283 30.1615 43.3167C30.1233 43.3504 30.1043 43.389 30.1043 43.4323V44.2195H33.3833V45.0862H30.1043V45.8734C30.1043 45.9215 30.1233 45.9624 30.1615 45.9961C30.1997 46.0298 30.2474 46.0467 30.3047 46.0467H34.0062V46.9061H30.3047C30.0852 46.9061 29.8823 46.8604 29.6962 46.7689C29.5148 46.6774 29.3692 46.5522 29.2594 46.3933C29.1544 46.2345 29.1019 46.0611 29.1019 45.8734V43.4323C29.1019 43.1482 29.2189 42.9075 29.4527 42.7101C29.6866 42.5079 29.9706 42.4068 30.3047 42.4068H34.0062V43.2662H30.3047Z" fill="white"/>
<path d="M42.0162 43.6778H41.0138V43.454C41.0138 43.4058 40.9876 43.3649 40.9351 43.3312C40.8826 43.2927 40.8229 43.2734 40.7561 43.2734H38.5223C38.4507 43.2734 38.3887 43.2927 38.3362 43.3312C38.2884 43.3649 38.2646 43.4058 38.2646 43.454V43.4684C38.2646 43.5358 38.3051 43.5864 38.3863 43.6201L41.3432 44.9923C41.5436 45.0837 41.7012 45.2113 41.8157 45.375C41.9303 45.5387 41.9899 45.7145 41.9947 45.9022C41.9947 46.1815 41.8778 46.4222 41.6439 46.6244C41.3957 46.8411 41.0926 46.9494 40.7346 46.9494H38.5223C38.1834 46.9494 37.8899 46.8507 37.6417 46.6533C37.3887 46.4463 37.2622 46.1959 37.2622 45.9022V45.7072H38.2646V45.9022C38.2646 45.9504 38.2861 45.9913 38.329 46.025C38.3815 46.0683 38.4459 46.09 38.5223 46.09H40.7346C40.811 46.09 40.8754 46.0659 40.9279 46.0178C40.9661 45.9841 40.9852 45.9456 40.9852 45.9022C40.9852 45.8397 40.947 45.7891 40.8706 45.7506L37.9066 44.3784C37.7061 44.2869 37.5486 44.1593 37.4341 43.9956C37.3195 43.8319 37.2622 43.6562 37.2622 43.4684V43.454C37.2622 43.2662 37.3171 43.0929 37.4269 42.934C37.5415 42.7703 37.6942 42.6427 37.8851 42.5512C38.0808 42.4597 38.2932 42.414 38.5223 42.414H40.7561C41.1045 42.414 41.4005 42.5175 41.6439 42.7245C41.8921 42.9268 42.0162 43.1699 42.0162 43.454V43.6778Z" fill="white"/>
<path d="M46.6948 42.3851C46.9001 42.3851 47.0886 42.4308 47.2604 42.5223C47.437 42.6138 47.5755 42.739 47.6757 42.8979C47.7759 43.0519 47.826 43.2229 47.826 43.4106V44.4578C47.826 44.6456 47.7759 44.8189 47.6757 44.9778C47.5755 45.1319 47.437 45.2547 47.2604 45.3461C47.0886 45.4376 46.9001 45.4834 46.6948 45.4834H43.8954V46.935H42.8931V42.3851H46.6948ZM46.8237 44.4578V43.4106C46.8237 43.3673 46.8094 43.3288 46.7808 43.2951C46.7569 43.2614 46.7282 43.2445 46.6948 43.2445H43.8954V44.6239H46.6948C46.7282 44.6239 46.7569 44.6095 46.7808 44.5806C46.8094 44.5469 46.8237 44.506 46.8237 44.4578Z" fill="white"/>
<path d="M52.6901 42.3129C53.0672 42.3129 53.3894 42.4308 53.6567 42.6668C53.9287 42.9027 54.0648 43.1867 54.0648 43.519V45.7939C54.0648 46.1261 53.9287 46.4102 53.6567 46.6461C53.3894 46.882 53.0672 47 52.6901 47H49.9838C49.6067 47 49.2822 46.882 49.0101 46.6461C48.7428 46.4102 48.6092 46.1261 48.6092 45.7939V43.519C48.6092 43.1867 48.7428 42.9027 49.0101 42.6668C49.2822 42.4308 49.6067 42.3129 49.9838 42.3129H52.6901ZM53.0624 45.7939V43.519C53.0624 43.4227 53.0242 43.3408 52.9479 43.2734C52.8763 43.206 52.7903 43.1723 52.6901 43.1723H49.9838C49.917 43.1723 49.8549 43.1892 49.7977 43.2229C49.7404 43.2517 49.695 43.2927 49.6616 43.3456C49.6282 43.3986 49.6115 43.4564 49.6115 43.519V45.7939C49.6115 45.8854 49.6473 45.9648 49.7189 46.0322C49.7905 46.0996 49.8788 46.1333 49.9838 46.1333H52.6901C52.7569 46.1333 52.819 46.1189 52.8763 46.09C52.9335 46.0611 52.9789 46.0202 53.0123 45.9672C53.0457 45.9143 53.0624 45.8565 53.0624 45.7939Z" fill="white"/>
<path d="M59.1791 45.3028L60.3103 46.9494H59.1433L58.0408 45.3389H56.0647V46.935H55.0624V42.3851H58.8641C59.1744 42.3851 59.4393 42.4814 59.6588 42.674C59.8832 42.8666 59.9953 43.0977 59.9953 43.3673V44.3567C59.9953 44.5782 59.919 44.7756 59.7662 44.9489C59.6135 45.1223 59.4178 45.2402 59.1791 45.3028ZM58.993 44.3567V43.3673C58.993 43.3336 58.9787 43.3047 58.95 43.2806C58.9262 43.2566 58.8975 43.2445 58.8641 43.2445H56.0647V44.4795H58.8641C58.8975 44.4795 58.9262 44.4675 58.95 44.4434C58.9787 44.4193 58.993 44.3904 58.993 44.3567Z" fill="white"/>
<path d="M60.5959 42.3995H65.6721V43.259H63.6602V46.9278H62.6579V43.259H60.5959V42.3995Z" fill="white"/>
<path d="M70.9117 43.6778H69.9093V43.454C69.9093 43.4058 69.8831 43.3649 69.8306 43.3312C69.7781 43.2927 69.7184 43.2734 69.6516 43.2734H67.4178C67.3462 43.2734 67.2842 43.2927 67.2317 43.3312C67.1839 43.3649 67.1601 43.4058 67.1601 43.454V43.4684C67.1601 43.5358 67.2006 43.5864 67.2818 43.6201L70.2387 44.9923C70.4391 45.0837 70.5967 45.2113 70.7112 45.375C70.8258 45.5387 70.8854 45.7145 70.8902 45.9022C70.8902 46.1815 70.7733 46.4222 70.5394 46.6244C70.2912 46.8411 69.9881 46.9494 69.6301 46.9494H67.4178C67.0789 46.9494 66.7854 46.8507 66.5372 46.6533C66.2842 46.4463 66.1577 46.1959 66.1577 45.9022V45.7072H67.1601V45.9022C67.1601 45.9504 67.1816 45.9913 67.2245 46.025C67.277 46.0683 67.3415 46.09 67.4178 46.09H69.6301C69.7065 46.09 69.7709 46.0659 69.8234 46.0178C69.8616 45.9841 69.8807 45.9456 69.8807 45.9022C69.8807 45.8397 69.8425 45.7891 69.7662 45.7506L66.8021 44.3784C66.6016 44.2869 66.4441 44.1593 66.3296 43.9956C66.215 43.8319 66.1577 43.6562 66.1577 43.4684V43.454C66.1577 43.2662 66.2126 43.0929 66.3224 42.934C66.437 42.7703 66.5897 42.6427 66.7806 42.5512C66.9763 42.4597 67.1887 42.414 67.4178 42.414H69.6516C70 42.414 70.296 42.5175 70.5394 42.7245C70.7876 42.9268 70.9117 43.1699 70.9117 43.454V43.6778Z" fill="white"/>
<path d="M79.6503 44.1978H78.648V43.519C78.648 43.4467 78.6026 43.3841 78.5119 43.3312C78.426 43.2734 78.3234 43.2445 78.2041 43.2445H75.7555C75.6982 43.2445 75.641 43.2542 75.5837 43.2734C75.5312 43.2879 75.4834 43.3071 75.4405 43.3312C75.4023 43.3553 75.3713 43.3842 75.3474 43.4179C75.3235 43.4516 75.3116 43.4853 75.3116 43.519V45.8156C75.3116 45.8878 75.357 45.9528 75.4476 46.0106C75.5383 46.0635 75.641 46.09 75.7555 46.09H78.2041C78.3234 46.09 78.426 46.0635 78.5119 46.0106C78.6026 45.9528 78.648 45.8878 78.648 45.8156V45.1078H79.6503V45.8156C79.6503 46.1285 79.5071 46.3958 79.2207 46.6172C78.9391 46.8387 78.6002 46.9494 78.2041 46.9494H75.7555C75.3594 46.9494 75.0181 46.8387 74.7317 46.6172C74.4501 46.3958 74.3093 46.1285 74.3093 45.8156V43.519C74.3093 43.206 74.4501 42.9388 74.7317 42.7173C75.0181 42.4958 75.3594 42.3851 75.7555 42.3851H78.2041C78.6002 42.3851 78.9391 42.4958 79.2207 42.7173C79.5071 42.9388 79.6503 43.206 79.6503 43.519V44.1978Z" fill="white"/>
<path d="M84.6254 42.3129C85.0024 42.3129 85.3246 42.4308 85.5919 42.6668C85.864 42.9027 86 43.1867 86 43.519V45.7939C86 46.1261 85.864 46.4102 85.5919 46.6461C85.3246 46.882 85.0024 47 84.6254 47H81.919C81.542 47 81.2174 46.882 80.9454 46.6461C80.6781 46.4102 80.5444 46.1261 80.5444 45.7939V43.519C80.5444 43.1867 80.6781 42.9027 80.9454 42.6668C81.2174 42.4308 81.542 42.3129 81.919 42.3129H84.6254ZM84.9977 45.7939V43.519C84.9977 43.4227 84.9595 43.3408 84.8831 43.2734C84.8115 43.206 84.7256 43.1723 84.6254 43.1723H81.919C81.8522 43.1723 81.7902 43.1892 81.7329 43.2229C81.6756 43.2517 81.6303 43.2927 81.5969 43.3456C81.5635 43.3986 81.5468 43.4564 81.5468 43.519V45.7939C81.5468 45.8854 81.5825 45.9648 81.6541 46.0322C81.7257 46.0996 81.814 46.1333 81.919 46.1333H84.6254C84.6922 46.1333 84.7542 46.1189 84.8115 46.09C84.8688 46.0611 84.9141 46.0202 84.9475 45.9672C84.9809 45.9143 84.9977 45.8565 84.9977 45.7939Z" fill="white"/>
</svg>
