<svg width="44" height="44" viewBox="0 0 44 44" fill="none" xmlns="http://www.w3.org/2000/svg">
<circle cx="22" cy="22" r="21.5" stroke="black"/>
<path d="M32.4953 31.4992V24.1742C32.4953 20.5742 31.7203 17.8242 27.5203 17.8242C25.4953 17.8242 24.1453 18.9242 23.5953 19.9742H23.5453V18.1492H19.5703V31.4992H23.7203V24.8742C23.7203 23.1242 24.0453 21.4492 26.1953 21.4492C28.3203 21.4492 28.3453 23.4242 28.3453 24.9742V31.4742H32.4953V31.4992Z" fill="black"/>
<path d="M12.8203 18.1484H16.9703V31.4984H12.8203V18.1484Z" fill="black"/>
<path d="M14.8961 11.5C13.5711 11.5 12.4961 12.575 12.4961 13.9C12.4961 15.225 13.5711 16.325 14.8961 16.325C16.2211 16.325 17.2961 15.225 17.2961 13.9C17.2961 12.575 16.2211 11.5 14.8961 11.5Z" fill="black"/>
</svg>
