<svg width="19" height="19" viewBox="0 0 19 19" fill="none" xmlns="http://www.w3.org/2000/svg">
<path d="M16.2318 1.58594H2.77344C2.45849 1.58594 2.15645 1.71105 1.93375 1.93375C1.71105 2.15645 1.58594 2.45849 1.58594 2.77344V16.2318C1.58594 16.5467 1.71105 16.8488 1.93375 17.0715C2.15645 17.2942 2.45849 17.4193 2.77344 17.4193H16.2318C16.5467 17.4193 16.8488 17.2942 17.0715 17.0715C17.2942 16.8488 17.4193 16.5467 17.4193 16.2318V2.77344C17.4193 2.45849 17.2942 2.15645 17.0715 1.93375C16.8488 1.71105 16.5467 1.58594 16.2318 1.58594ZM6.33594 15.0443H3.96094V7.91927H6.33594V15.0443ZM5.14844 6.53385C4.87625 6.52607 4.61239 6.43826 4.38982 6.28137C4.16726 6.12449 3.99586 5.9055 3.89705 5.65176C3.79823 5.39802 3.77638 5.12079 3.83422 4.85471C3.89207 4.58862 4.02704 4.34548 4.22228 4.15567C4.41751 3.96585 4.66436 3.83778 4.93197 3.78745C5.19958 3.73713 5.47608 3.76678 5.72694 3.8727C5.97779 3.97862 6.19187 4.15612 6.34242 4.38301C6.49297 4.60991 6.57333 4.87614 6.57344 5.14844C6.56718 5.5208 6.41379 5.87554 6.14677 6.13514C5.87975 6.39474 5.52083 6.53809 5.14844 6.53385ZM15.0443 15.0443H12.6693V11.2918C12.6693 10.1676 12.1943 9.76385 11.5768 9.76385C11.3957 9.77591 11.2188 9.82361 11.0563 9.90422C10.8937 9.98484 10.7487 10.0968 10.6295 10.2336C10.5104 10.3704 10.4194 10.5294 10.3619 10.7015C10.3043 10.8736 10.2814 11.0554 10.2943 11.2364C10.2903 11.2732 10.2903 11.3103 10.2943 11.3472V15.0443H7.91927V7.91927H10.2151V8.94844C10.4467 8.59615 10.7649 8.30922 11.1391 8.11516C11.5134 7.92109 11.9312 7.82638 12.3526 7.8401C13.5797 7.8401 15.0126 8.52094 15.0126 10.7376L15.0443 15.0443Z" fill="white"/>
<path d="M15.0443 15.0443H12.6693V11.2918C12.6693 10.1676 12.1943 9.76385 11.5768 9.76385C11.3957 9.77591 11.2188 9.82361 11.0563 9.90422C10.8937 9.98484 10.7487 10.0968 10.6295 10.2336C10.5104 10.3704 10.4194 10.5294 10.3619 10.7015C10.3043 10.8736 10.2814 11.0554 10.2943 11.2364C10.2903 11.2732 10.2903 11.3103 10.2943 11.3472V15.0443H7.91927V7.91927H10.2151V8.94844C10.4467 8.59615 10.7649 8.30922 11.1391 8.11516C11.5134 7.92109 11.9312 7.82638 12.3526 7.8401C13.5797 7.8401 15.0126 8.52094 15.0126 10.7376L15.0443 15.0443Z" fill="white"/>
<path d="M6.33594 15.0443H3.96094V7.91927H6.33594V15.0443Z" fill="white"/>
<path d="M5.14844 6.53385C4.87625 6.52607 4.61239 6.43826 4.38982 6.28137C4.16726 6.12449 3.99586 5.9055 3.89705 5.65176C3.79823 5.39802 3.77638 5.12079 3.83422 4.85471C3.89207 4.58862 4.02704 4.34548 4.22228 4.15567C4.41751 3.96585 4.66436 3.83778 4.93197 3.78745C5.19958 3.73713 5.47608 3.76678 5.72694 3.8727C5.97779 3.97862 6.19187 4.15612 6.34242 4.38301C6.49297 4.60991 6.57333 4.87614 6.57344 5.14844C6.56718 5.5208 6.41379 5.87554 6.14677 6.13514C5.87975 6.39474 5.52083 6.53809 5.14844 6.53385Z" fill="white"/>
<path d="M16.2318 1.58594H2.77344C2.45849 1.58594 2.15645 1.71105 1.93375 1.93375C1.71105 2.15645 1.58594 2.45849 1.58594 2.77344V16.2318C1.58594 16.5467 1.71105 16.8488 1.93375 17.0715C2.15645 17.2942 2.45849 17.4193 2.77344 17.4193H16.2318C16.5467 17.4193 16.8488 17.2942 17.0715 17.0715C17.2942 16.8488 17.4193 16.5467 17.4193 16.2318V2.77344C17.4193 2.45849 17.2942 2.15645 17.0715 1.93375C16.8488 1.71105 16.5467 1.58594 16.2318 1.58594ZM6.33594 15.0443H3.96094V7.91927H6.33594V15.0443ZM5.14844 6.53385C4.87625 6.52607 4.61239 6.43826 4.38982 6.28137C4.16726 6.12449 3.99586 5.9055 3.89705 5.65176C3.79823 5.39802 3.77638 5.12079 3.83422 4.85471C3.89207 4.58862 4.02704 4.34548 4.22228 4.15567C4.41751 3.96585 4.66436 3.83778 4.93197 3.78745C5.19958 3.73713 5.47608 3.76678 5.72694 3.8727C5.97779 3.97862 6.19187 4.15612 6.34242 4.38301C6.49297 4.60991 6.57333 4.87614 6.57344 5.14844C6.56718 5.5208 6.41379 5.87554 6.14677 6.13514C5.87975 6.39474 5.52083 6.53809 5.14844 6.53385ZM15.0443 15.0443H12.6693V11.2918C12.6693 10.1676 12.1943 9.76385 11.5768 9.76385C11.3957 9.77591 11.2188 9.82361 11.0563 9.90422C10.8937 9.98484 10.7487 10.0968 10.6295 10.2336C10.5104 10.3704 10.4194 10.5294 10.3619 10.7015C10.3043 10.8736 10.2814 11.0554 10.2943 11.2364C10.2903 11.2732 10.2903 11.3103 10.2943 11.3472V15.0443H7.91927V7.91927H10.2151V8.94844C10.4467 8.59615 10.7649 8.30922 11.1391 8.11516C11.5134 7.92109 11.9312 7.82638 12.3526 7.8401C13.5797 7.8401 15.0126 8.52094 15.0126 10.7376L15.0443 15.0443Z" fill="#2E64BC"/>
</svg>
