<svg width="14" height="15" viewBox="0 0 14 15" fill="none" xmlns="http://www.w3.org/2000/svg">
<g id="fi_1828471" clip-path="url(#clip0_2153_3209)">
<path id="Vector" d="M10.9375 5.75H10.5V4C10.5 2.0697 8.9303 0.5 7 0.5C5.0697 0.5 3.5 2.0697 3.5 4V5.75H3.0625C2.33917 5.75 1.75 6.33853 1.75 7.0625V13.1875C1.75 13.9115 2.33917 14.5 3.0625 14.5H10.9375C11.6608 14.5 12.25 13.9115 12.25 13.1875V7.0625C12.25 6.33853 11.6608 5.75 10.9375 5.75ZM4.6667 4C4.6667 2.71313 5.71313 1.6667 7 1.6667C8.28687 1.6667 9.3333 2.71313 9.3333 4V5.75H4.6667V4Z" fill="#DBFF26"/>
</g>
<defs>
<clipPath id="clip0_2153_3209">
<rect width="14" height="14" fill="white" transform="translate(0 0.5)"/>
</clipPath>
</defs>
</svg>
