<svg width="286" height="155" viewBox="0 0 286 155" fill="none" xmlns="http://www.w3.org/2000/svg">
<path d="M13.827 116.408V5.39862L0 4.04896V2.69931H41.4809V4.04896L26.8108 5.39862V117.083H64.0761C66.7741 117.083 68.7413 116.689 69.9779 115.902C71.2144 115.002 72.3386 113.315 73.3503 110.84L84.8165 81.9916L86.84 82.329L82.6245 119.107H0V117.757L13.827 116.408Z" fill="white"/>
<path d="M155.133 117.42C149.625 120.344 143.386 121.806 136.416 121.806C131.133 121.806 126.018 120.963 121.071 119.276C116.125 117.701 111.91 115.452 108.425 112.528L104.884 121.806H102.692L100.5 81.4854L102.017 81.148C103.703 88.7961 105.39 94.7571 107.076 99.031C108.875 103.305 111.179 107.016 113.989 110.166C119.722 116.576 127.31 119.782 136.753 119.782C144.847 119.782 151.142 117.701 155.639 113.54C160.248 109.266 162.552 103.53 162.552 96.3317C162.552 91.2705 161.316 86.9965 158.843 83.5099C156.482 80.0233 153.222 77.0428 149.063 74.5685C144.903 72.0941 139.058 69.2261 131.526 65.9644C125.343 63.2651 120.172 60.622 116.013 58.0352C111.853 55.3359 108.369 51.9055 105.558 47.7441C102.86 43.4702 101.511 38.2965 101.511 32.223C101.511 26.0371 102.973 20.526 105.896 15.6897C108.931 10.741 113.034 6.91699 118.205 4.21767C123.488 1.40589 129.446 0 136.079 0C140.688 0 144.959 0.787299 148.894 2.3619C152.941 3.93649 157.269 6.52333 161.878 10.1224L165.925 2.02449H168.117L169.803 38.8026L168.117 39.3087C166.318 31.7731 164.014 25.1373 161.203 19.4013C155.583 7.81676 146.983 2.02449 135.404 2.02449C128.435 2.02449 122.87 4.04897 118.711 8.09793C114.551 12.0344 112.472 17.4331 112.472 24.2938C112.472 29.2425 113.596 33.404 115.844 36.7781C118.205 40.1522 121.409 43.0765 125.456 45.5509C129.615 48.0252 135.46 51.0057 142.992 54.4923C149.737 57.5291 155.133 60.3971 159.18 63.0964C163.339 65.7957 166.655 69.1698 169.129 73.2188C171.714 77.1553 173.007 82.0478 173.007 87.8963C173.007 94.4197 171.433 100.268 168.285 105.442C165.138 110.503 160.754 114.496 155.133 117.42Z" fill="white"/>
<path d="M257.618 116.239C262.452 114.102 266.499 111.234 269.759 107.635C275.267 101.449 279.426 92.2265 282.237 79.9671L284.429 80.3045V119.107H282.237L276.503 109.828C271.445 113.54 265.937 116.464 259.979 118.601C254.133 120.738 248.456 121.806 242.948 121.806C233.168 121.806 224.175 119.107 215.968 113.708C207.875 108.31 201.467 100.999 196.746 91.7766C192.137 82.4415 189.832 72.1503 189.832 60.9032C189.832 49.7685 192.137 39.5337 196.746 30.1985C201.467 20.8634 207.875 13.4966 215.968 8.09793C224.062 2.69931 232.943 0 242.611 0C247.669 0 252.84 0.843534 258.124 2.5306C263.52 4.1052 269.478 6.6358 275.998 10.1224L280.044 2.02449H282.237L283.923 39.9836L281.562 40.6584C279.988 31.9981 277.515 24.8562 274.143 19.2326C270.77 13.7215 266.386 9.50382 260.99 6.57957C255.594 3.54285 249.636 2.02449 243.116 2.02449C231.201 2.02449 222.039 7.14193 215.631 17.3768C209.224 27.6117 206.02 42.1205 206.02 60.9032C206.02 79.5734 209.224 94.026 215.631 104.261C222.039 114.383 231.144 119.445 242.948 119.445C248.006 119.445 252.896 118.376 257.618 116.239Z" fill="white"/>
<path d="M6.28912 151.832H15.2161V154.667H6.28912C5.22582 154.667 4.31328 154.349 3.55151 153.714C2.80561 153.063 2.43266 152.285 2.43266 151.38V139.781H5.76541V151.38C5.76541 151.507 5.81302 151.618 5.90824 151.713C6.01933 151.793 6.14629 151.832 6.28912 151.832Z" fill="white"/>
<path d="M21.2554 142.686C21.065 142.686 20.9063 142.742 20.7793 142.853C20.6524 142.964 20.5889 143.091 20.5889 143.234V145.83H31.4918V148.688H20.5889V151.284C20.5889 151.443 20.6524 151.578 20.7793 151.689C20.9063 151.801 21.065 151.856 21.2554 151.856H33.5628V154.69H21.2554C20.5254 154.69 19.8509 154.54 19.232 154.238C18.6289 153.936 18.1449 153.523 17.7799 152.999C17.4307 152.475 17.2561 151.904 17.2561 151.284V143.234C17.2561 142.297 17.645 141.503 18.4226 140.852C19.2003 140.186 20.1445 139.852 21.2554 139.852H33.5628V142.686H21.2554Z" fill="white"/>
<path d="M47.7915 140.71L55.7187 154.833H52.0289L50.2911 151.761H40.5309L38.6503 154.833H34.889L43.5542 140.638C43.7764 140.305 44.0779 140.043 44.4588 139.852C44.8397 139.646 45.2523 139.55 45.6967 139.566C46.1569 139.566 46.5695 139.669 46.9346 139.876C47.3154 140.082 47.6011 140.36 47.7915 140.71ZM42.2687 148.927H48.6962L45.6253 143.425L42.2687 148.927Z" fill="white"/>
<path d="M64.571 145.83H73.617V151.118C73.617 151.785 73.4186 152.404 73.0219 152.976C72.641 153.531 72.1173 153.976 71.4507 154.309C70.7842 154.627 70.0621 154.786 69.2844 154.786H61.2144C60.4368 154.786 59.7147 154.627 59.0481 154.309C58.3816 153.976 57.8499 153.531 57.4532 152.976C57.0723 152.404 56.8819 151.785 56.8819 151.118V143.472C56.8819 142.456 57.3024 141.591 58.1435 140.876C59.0005 140.146 60.0242 139.781 61.2144 139.781H68.9988C69.7923 139.781 70.5144 139.947 71.1651 140.281C71.8316 140.598 72.3553 141.043 72.7362 141.615C73.133 142.186 73.3314 142.805 73.3314 143.472V143.83H69.9986V143.472C69.9986 143.314 69.951 143.171 69.8558 143.044C69.7764 142.917 69.6574 142.813 69.4987 142.734C69.3559 142.655 69.1892 142.615 68.9988 142.615H61.2144C60.9446 142.615 60.7066 142.702 60.5003 142.877C60.3098 143.036 60.2146 143.234 60.2146 143.472V151.094C60.2146 151.332 60.3098 151.539 60.5003 151.713C60.7066 151.872 60.9446 151.951 61.2144 151.951H69.2844C69.5542 151.951 69.7844 151.872 69.9748 151.713C70.1811 151.539 70.2843 151.332 70.2843 151.094V148.688H64.571V145.83Z" fill="white"/>
<path d="M90.2062 139.781H93.539V151.118C93.539 152.134 93.0867 152.999 92.1821 153.714C91.2933 154.428 90.2141 154.786 88.9445 154.786H81.303C80.0334 154.786 78.9463 154.428 78.0417 153.714C77.1529 152.999 76.7086 152.134 76.7086 151.118V139.781H80.0413V151.118C80.0413 151.34 80.1683 151.539 80.4222 151.713C80.6761 151.872 80.9697 151.951 81.303 151.951H88.9445C89.2778 151.951 89.5714 151.872 89.8253 151.713C90.0792 151.539 90.2062 151.34 90.2062 151.118V139.781Z" fill="white"/>
<path d="M100.763 142.686C100.572 142.686 100.413 142.742 100.286 142.853C100.16 142.964 100.096 143.091 100.096 143.234V145.83H110.999V148.688H100.096V151.284C100.096 151.443 100.16 151.578 100.286 151.689C100.413 151.801 100.572 151.856 100.763 151.856H113.07V154.69H100.763C100.033 154.69 99.3581 154.54 98.7391 154.238C98.1361 153.936 97.652 153.523 97.287 152.999C96.9379 152.475 96.7633 151.904 96.7633 151.284V143.234C96.7633 142.297 97.1521 141.503 97.9297 140.852C98.7074 140.186 99.6517 139.852 100.763 139.852H113.07V142.686H100.763Z" fill="white"/>
<path d="M139.703 144.044H136.37V143.306C136.37 143.147 136.283 143.012 136.108 142.901C135.934 142.774 135.735 142.71 135.513 142.71H128.086C127.848 142.71 127.642 142.774 127.467 142.901C127.308 143.012 127.229 143.147 127.229 143.306V143.353C127.229 143.576 127.364 143.742 127.634 143.853L137.465 148.379C138.132 148.68 138.656 149.101 139.036 149.641C139.417 150.181 139.616 150.76 139.632 151.38C139.632 152.301 139.243 153.095 138.465 153.761C137.64 154.476 136.632 154.833 135.442 154.833H128.086C126.959 154.833 125.983 154.508 125.158 153.857C124.317 153.174 123.896 152.348 123.896 151.38V150.737H127.229V151.38C127.229 151.539 127.3 151.673 127.443 151.785C127.618 151.928 127.832 151.999 128.086 151.999H135.442C135.696 151.999 135.91 151.92 136.085 151.761C136.211 151.65 136.275 151.523 136.275 151.38C136.275 151.173 136.148 151.007 135.894 150.88L126.039 146.354C125.372 146.053 124.848 145.632 124.468 145.092C124.087 144.552 123.896 143.973 123.896 143.353V143.306C123.896 142.686 124.079 142.115 124.444 141.591C124.825 141.051 125.332 140.63 125.967 140.328C126.618 140.027 127.324 139.876 128.086 139.876H135.513C136.672 139.876 137.656 140.217 138.465 140.9C139.29 141.567 139.703 142.369 139.703 143.306V144.044Z" fill="white"/>
<path d="M155.259 139.781C155.942 139.781 156.569 139.931 157.14 140.233C157.727 140.535 158.187 140.948 158.521 141.472C158.854 141.98 159.021 142.543 159.021 143.163V146.616C159.021 147.236 158.854 147.807 158.521 148.331C158.187 148.839 157.727 149.244 157.14 149.546C156.569 149.847 155.942 149.998 155.259 149.998H145.951V154.786H142.619V139.781H155.259ZM155.688 146.616V143.163C155.688 143.02 155.64 142.893 155.545 142.782C155.466 142.671 155.37 142.615 155.259 142.615H145.951V147.164H155.259C155.37 147.164 155.466 147.116 155.545 147.021C155.64 146.91 155.688 146.775 155.688 146.616Z" fill="white"/>
<path d="M175.194 139.542C176.447 139.542 177.519 139.932 178.407 140.71C179.312 141.488 179.764 142.424 179.764 143.52V151.022C179.764 152.118 179.312 153.055 178.407 153.833C177.519 154.611 176.447 155 175.194 155H166.195C164.941 155 163.862 154.611 162.958 153.833C162.069 153.055 161.625 152.118 161.625 151.022V143.52C161.625 142.424 162.069 141.488 162.958 140.71C163.862 139.932 164.941 139.542 166.195 139.542H175.194ZM176.431 151.022V143.52C176.431 143.202 176.304 142.932 176.051 142.71C175.813 142.488 175.527 142.377 175.194 142.377H166.195C165.973 142.377 165.767 142.432 165.576 142.543C165.386 142.639 165.235 142.774 165.124 142.948C165.013 143.123 164.957 143.314 164.957 143.52V151.022C164.957 151.324 165.076 151.586 165.314 151.808C165.552 152.031 165.846 152.142 166.195 152.142H175.194C175.416 152.142 175.622 152.094 175.813 151.999C176.003 151.904 176.154 151.769 176.265 151.594C176.376 151.419 176.431 151.229 176.431 151.022Z" fill="white"/>
<path d="M196.769 149.403L200.531 154.833H196.65L192.984 149.522H186.414V154.786H183.081V139.781H195.722C196.754 139.781 197.634 140.098 198.364 140.733C199.11 141.368 199.483 142.131 199.483 143.02V146.283C199.483 147.013 199.229 147.664 198.721 148.236C198.214 148.807 197.563 149.196 196.769 149.403ZM196.151 146.283V143.02C196.151 142.909 196.103 142.813 196.008 142.734C195.928 142.655 195.833 142.615 195.722 142.615H186.414V146.688H195.722C195.833 146.688 195.928 146.648 196.008 146.569C196.103 146.489 196.151 146.394 196.151 146.283Z" fill="white"/>
<path d="M201.48 139.828H218.358V142.663H211.669V154.762H208.336V142.663H201.48V139.828Z" fill="white"/>
<path d="M235.78 144.044H232.447V143.306C232.447 143.147 232.36 143.012 232.185 142.901C232.011 142.774 231.812 142.71 231.59 142.71H224.163C223.925 142.71 223.719 142.774 223.544 142.901C223.385 143.012 223.306 143.147 223.306 143.306V143.353C223.306 143.576 223.441 143.742 223.711 143.853L233.542 148.379C234.209 148.68 234.732 149.101 235.113 149.641C235.494 150.181 235.693 150.76 235.708 151.38C235.708 152.301 235.32 153.095 234.542 153.761C233.717 154.476 232.709 154.833 231.519 154.833H224.163C223.036 154.833 222.06 154.508 221.235 153.857C220.394 153.174 219.973 152.348 219.973 151.38V150.737H223.306V151.38C223.306 151.539 223.377 151.673 223.52 151.785C223.695 151.928 223.909 151.999 224.163 151.999H231.519C231.773 151.999 231.987 151.92 232.161 151.761C232.288 151.65 232.352 151.523 232.352 151.38C232.352 151.173 232.225 151.007 231.971 150.88L222.116 146.354C221.449 146.053 220.925 145.632 220.544 145.092C220.164 144.552 219.973 143.973 219.973 143.353V143.306C219.973 142.686 220.156 142.115 220.521 141.591C220.902 141.051 221.409 140.63 222.044 140.328C222.695 140.027 223.401 139.876 224.163 139.876H231.59C232.749 139.876 233.733 140.217 234.542 140.9C235.367 141.567 235.78 142.369 235.78 143.306V144.044Z" fill="white"/>
<path d="M264.836 145.759H261.503V143.52C261.503 143.282 261.352 143.075 261.051 142.901C260.765 142.71 260.424 142.615 260.027 142.615H251.886C251.695 142.615 251.505 142.647 251.314 142.71C251.14 142.758 250.981 142.821 250.838 142.901C250.711 142.98 250.608 143.075 250.529 143.187C250.449 143.298 250.41 143.409 250.41 143.52V151.094C250.41 151.332 250.56 151.546 250.862 151.737C251.163 151.912 251.505 151.999 251.886 151.999H260.027C260.424 151.999 260.765 151.912 261.051 151.737C261.352 151.546 261.503 151.332 261.503 151.094V148.76H264.836V151.094C264.836 152.126 264.36 153.007 263.407 153.738C262.471 154.468 261.344 154.833 260.027 154.833H251.886C250.568 154.833 249.434 154.468 248.481 153.738C247.545 153.007 247.077 152.126 247.077 151.094V143.52C247.077 142.488 247.545 141.607 248.481 140.876C249.434 140.146 250.568 139.781 251.886 139.781H260.027C261.344 139.781 262.471 140.146 263.407 140.876C264.36 141.607 264.836 142.488 264.836 143.52V145.759Z" fill="white"/>
<path d="M281.378 139.542C282.631 139.542 283.703 139.932 284.591 140.71C285.496 141.488 285.948 142.424 285.948 143.52V151.022C285.948 152.118 285.496 153.055 284.591 153.833C283.703 154.611 282.631 155 281.378 155H272.379C271.125 155 270.046 154.611 269.142 153.833C268.253 153.055 267.809 152.118 267.809 151.022V143.52C267.809 142.424 268.253 141.488 269.142 140.71C270.046 139.932 271.125 139.542 272.379 139.542H281.378ZM282.615 151.022V143.52C282.615 143.202 282.489 142.932 282.235 142.71C281.997 142.488 281.711 142.377 281.378 142.377H272.379C272.157 142.377 271.951 142.432 271.76 142.543C271.57 142.639 271.419 142.774 271.308 142.948C271.197 143.123 271.141 143.314 271.141 143.52V151.022C271.141 151.324 271.26 151.586 271.498 151.808C271.736 152.031 272.03 152.142 272.379 152.142H281.378C281.6 152.142 281.806 152.094 281.997 151.999C282.187 151.904 282.338 151.769 282.449 151.594C282.56 151.419 282.615 151.229 282.615 151.022Z" fill="white"/>
</svg>
