<svg width="106" height="34" viewBox="0 0 106 34" fill="none" xmlns="http://www.w3.org/2000/svg">
<g clip-path="url(#clip0_2155_1986)">
<path d="M80.2021 5.80469H3.37109V10.4741H80.2021V5.80469Z" fill="url(#paint0_linear_2155_1986)"/>
<path d="M15.0091 0V13.8081H13.5684V2.78164L8.50588 13.8081H7.45631L2.3937 2.82167V13.8081H0.953125V0H2.47603L7.97081 11.967L13.4656 0H15.0091Z" fill="white"/>
<path d="M46.9656 7.78564C46.9656 8.26592 46.9518 8.63281 46.9245 8.88629H37.6018C37.643 9.71344 37.8488 10.4205 38.2193 11.0075C38.5896 11.5945 39.0766 12.0415 39.6804 12.3483C40.284 12.6418 40.9426 12.7886 41.6561 12.7886C42.5889 12.7886 43.371 12.5684 44.0021 12.1282C44.6469 11.6879 45.0722 11.0943 45.278 10.3471H46.8009C46.5265 11.4144 45.9366 12.2883 45.0311 12.9687C44.1393 13.6357 43.0142 13.9693 41.6561 13.9693C40.5996 13.9693 39.6529 13.7425 38.816 13.2889C37.9791 12.8219 37.3205 12.1682 36.8403 11.3277C36.3739 10.4739 36.1406 9.47998 36.1406 8.34597C36.1406 7.21197 36.3739 6.21805 36.8403 5.36421C37.3069 4.51037 37.9585 3.85666 38.7954 3.40306C39.6323 2.94946 40.5859 2.72266 41.6561 2.72266C42.7261 2.72266 43.6591 2.94946 44.4549 3.40306C45.2643 3.85666 45.8817 4.47036 46.307 5.24414C46.746 6.0046 46.9656 6.85175 46.9656 7.78564ZM45.5044 7.74562C45.5182 6.9318 45.3466 6.23806 44.9899 5.66439C44.6469 5.09072 44.1736 4.65713 43.5699 4.36362C42.9663 4.07013 42.3077 3.92337 41.5943 3.92337C40.5242 3.92337 39.6118 4.25689 38.8572 4.92395C38.1026 5.59102 37.6841 6.53157 37.6018 7.74562H45.5044Z" fill="white"/>
<path d="M69.994 4.06294V10.8469C69.994 11.514 70.1243 11.9742 70.3849 12.2277C70.6457 12.4812 71.1053 12.608 71.7639 12.608H73.0809V13.8087H71.5375C70.5221 13.8087 69.7676 13.5819 69.2737 13.1283C68.7797 12.6613 68.5328 11.9009 68.5328 10.8469V4.06294H66.9688V2.88224H68.5328V0.140625H69.994V2.88224H73.0809V4.06294H69.994Z" fill="white"/>
<path d="M93.3203 8.32596C93.3203 7.2053 93.5467 6.22472 93.9995 5.38422C94.466 4.53039 95.1039 3.87667 95.9133 3.42307C96.7366 2.95614 97.6626 2.72266 98.6917 2.72266C99.7619 2.72266 100.681 2.96281 101.449 3.44308C102.231 3.92337 102.794 4.53706 103.137 5.28417V2.88275H104.577V13.8092H103.137V11.3878C102.78 12.1349 102.211 12.7552 101.429 13.2488C100.66 13.7291 99.7412 13.9693 98.6711 13.9693C97.6559 13.9693 96.7366 13.7358 95.9133 13.2689C95.1039 12.8019 94.466 12.1415 93.9995 11.2877C93.5467 10.4339 93.3203 9.44662 93.3203 8.32596ZM103.137 8.34597C103.137 7.46545 102.952 6.69167 102.581 6.0246C102.211 5.35754 101.703 4.84391 101.058 4.4837C100.427 4.12348 99.7275 3.94339 98.9592 3.94339C98.1634 3.94339 97.45 4.11681 96.8188 4.46369C96.1877 4.81055 95.6871 5.31753 95.3166 5.98458C94.9599 6.6383 94.7814 7.41875 94.7814 8.32596C94.7814 9.21981 94.9599 10.0069 95.3166 10.6873C95.6871 11.3544 96.1877 11.868 96.8188 12.2283C97.45 12.5751 98.1634 12.7486 98.9592 12.7486C99.7275 12.7486 100.427 12.5685 101.058 12.2082C101.703 11.848 102.211 11.3344 102.581 10.6673C102.952 10.0003 103.137 9.22648 103.137 8.34597Z" fill="white"/>
<path d="M8.14956 26.6557C8.95904 26.8024 9.62444 27.1959 10.1458 27.8363C10.6672 28.4767 10.9278 29.2104 10.9278 30.0377C10.9278 30.7848 10.7358 31.445 10.3516 32.0188C9.98116 32.5792 9.43923 33.0194 8.7258 33.3395C8.01237 33.6597 7.1686 33.8199 6.1945 33.8199H0V19.8516H5.92696C6.90106 19.8516 7.73797 20.0051 8.43768 20.3119C9.15112 20.6188 9.68619 21.0457 10.0429 21.5926C10.4133 22.1396 10.5986 22.76 10.5986 23.4538C10.5986 24.2676 10.3722 24.948 9.91942 25.4949C9.48039 26.0419 8.89044 26.4288 8.14956 26.6557ZM2.88116 25.6149H5.51536C6.20136 25.6149 6.72957 25.4683 7.1 25.1748C7.47044 24.8679 7.65566 24.4344 7.65566 23.874C7.65566 23.3136 7.47044 22.88 7.1 22.5732C6.72957 22.2663 6.20136 22.1129 5.51536 22.1129H2.88116V25.6149ZM5.7829 31.5385C6.48261 31.5385 7.02455 31.3783 7.4087 31.0582C7.80657 30.738 8.00551 30.2844 8.00551 29.6974C8.00551 29.0971 7.79971 28.6301 7.38812 28.2966C6.97652 27.9497 6.42088 27.7763 5.72116 27.7763H2.88116V31.5385H5.7829Z" fill="white"/>
<path d="M18.2868 34.0015C17.1892 34.0015 16.2013 33.768 15.3233 33.3011C14.4452 32.8208 13.7524 32.1471 13.2448 31.2799C12.7509 30.4127 12.5039 29.4121 12.5039 28.2781C12.5039 27.1442 12.7577 26.1435 13.2653 25.2764C13.7867 24.4092 14.4933 23.7421 15.3851 23.2751C16.2768 22.7949 17.2715 22.5547 18.3692 22.5547C19.4667 22.5547 20.4614 22.7949 21.3532 23.2751C22.2449 23.7421 22.9446 24.4092 23.4523 25.2764C23.9737 26.1435 24.2343 27.1442 24.2343 28.2781C24.2343 29.4121 23.9668 30.4127 23.4317 31.2799C22.9104 32.1471 22.1969 32.8208 21.2915 33.3011C20.3997 33.768 19.3981 34.0015 18.2868 34.0015ZM18.2868 31.5601C18.8081 31.5601 19.2952 31.44 19.748 31.1998C20.2144 30.9464 20.5849 30.5728 20.8593 30.0791C21.1336 29.5856 21.2708 28.9852 21.2708 28.2781C21.2708 27.2241 20.9827 26.417 20.4066 25.8567C19.8441 25.2831 19.1511 24.9962 18.3279 24.9962C17.5048 24.9962 16.812 25.2831 16.2494 25.8567C15.7007 26.417 15.4262 27.2241 15.4262 28.2781C15.4262 29.332 15.6938 30.1458 16.2288 30.7196C16.7776 31.2799 17.4636 31.5601 18.2868 31.5601Z" fill="white"/>
<path d="M37.1122 22.7344V33.8209H34.2104V32.4201C33.84 32.9004 33.353 33.2806 32.7492 33.5608C32.1594 33.8275 31.5145 33.9609 30.8148 33.9609C29.9231 33.9609 29.1341 33.7809 28.4482 33.4207C27.7621 33.0471 27.2202 32.5068 26.8224 31.7998C26.4381 31.0793 26.2461 30.2255 26.2461 29.2382V22.7344H29.1273V28.838C29.1273 29.7184 29.3537 30.3989 29.8063 30.8792C30.2592 31.3462 30.8765 31.5795 31.6586 31.5795C32.4542 31.5795 33.0786 31.3462 33.5313 30.8792C33.9841 30.3989 34.2104 29.7184 34.2104 28.838V22.7344H37.1122Z" fill="white"/>
<path d="M46.2711 22.5742C47.6294 22.5742 48.7269 22.9945 49.5638 23.8349C50.4009 24.6621 50.8193 25.8228 50.8193 27.317V33.8209H47.9381V27.6973C47.9381 26.8168 47.7117 26.1429 47.2589 25.6761C46.8062 25.1957 46.1889 24.9556 45.4068 24.9556C44.611 24.9556 43.9799 25.1957 43.5135 25.6761C43.0607 26.1429 42.8343 26.8168 42.8343 27.6973V33.8209H39.9531V22.7343H42.8343V24.1152C43.2185 23.6348 43.7055 23.2613 44.2956 22.9945C44.8992 22.7143 45.5578 22.5742 46.2711 22.5742Z" fill="white"/>
<path d="M52.8203 28.2372C52.8203 27.1165 53.0467 26.1226 53.4994 25.2555C53.9658 24.3882 54.5971 23.7212 55.3927 23.2542C56.1885 22.7873 57.0734 22.5538 58.0475 22.5538C58.7884 22.5538 59.495 22.714 60.1672 23.0342C60.8396 23.3409 61.3746 23.7546 61.7724 24.2749V19.0117H64.6948V33.8205H61.7724V32.1795C61.4157 32.7265 60.915 33.1668 60.2702 33.5002C59.6253 33.8338 58.8776 34.0006 58.027 34.0006C57.0665 34.0006 56.1885 33.7604 55.3927 33.2801C54.5971 32.7999 53.9658 32.1262 53.4994 31.2589C53.0467 30.3784 52.8203 29.3712 52.8203 28.2372ZM61.793 28.2772C61.793 27.5968 61.6558 27.0164 61.3815 26.5361C61.1071 26.0425 60.7366 25.669 60.2702 25.4156C59.8036 25.1487 59.303 25.0153 58.7678 25.0153C58.2328 25.0153 57.7389 25.142 57.2861 25.3955C56.8334 25.6489 56.4629 26.0225 56.1748 26.5162C55.9004 26.9964 55.7632 27.5701 55.7632 28.2372C55.7632 28.9042 55.9004 29.4912 56.1748 29.9982C56.4629 30.4919 56.8334 30.8721 57.2861 31.1389C57.7526 31.4057 58.2465 31.5392 58.7678 31.5392C59.303 31.5392 59.8036 31.4123 60.2702 31.1589C60.7366 30.892 61.1071 30.5185 61.3815 30.0383C61.6558 29.5446 61.793 28.9576 61.793 28.2772Z" fill="white"/>
<path d="M70.389 19.0117V33.8205H67.5078V19.0117H70.389Z" fill="white"/>
<path d="M83.8317 28.038C83.8317 28.4382 83.8042 28.7985 83.7493 29.1186H75.4146C75.4832 29.919 75.7712 30.5461 76.2788 30.9997C76.7865 31.4533 77.4107 31.6801 78.1517 31.6801C79.2217 31.6801 79.9832 31.2332 80.436 30.3393H83.5435C83.2142 31.4067 82.5831 32.2872 81.6502 32.9808C80.7172 33.6612 79.5716 34.0015 78.2134 34.0015C77.1157 34.0015 76.1279 33.768 75.2499 33.3011C74.3855 32.8208 73.7064 32.1471 73.2125 31.2799C72.7323 30.4127 72.4922 29.4121 72.4922 28.2781C72.4922 27.1308 72.7323 26.1235 73.2125 25.2564C73.6927 24.3891 74.3649 23.7221 75.2293 23.2552C76.0937 22.7882 77.0884 22.5547 78.2134 22.5547C79.2972 22.5547 80.2644 22.7816 81.1151 23.2352C81.9794 23.6888 82.6449 24.3358 83.1113 25.1763C83.5915 26.0035 83.8317 26.9573 83.8317 28.038ZM80.8475 27.2375C80.8338 26.5171 80.5663 25.9434 80.045 25.5166C79.5236 25.0762 78.8856 24.8561 78.1311 24.8561C77.4176 24.8561 76.814 25.0695 76.3201 25.4965C75.8398 25.91 75.5449 26.4904 75.4351 27.2375H80.8475Z" fill="white"/>
<path d="M90.3006 34.0015C89.3676 34.0015 88.5307 33.8414 87.7899 33.5212C87.049 33.1877 86.4591 32.7408 86.02 32.1804C85.5947 31.6201 85.3614 30.9997 85.3203 30.3193H88.222C88.277 30.7462 88.4896 31.0998 88.8599 31.3799C89.2442 31.6601 89.7175 31.8002 90.28 31.8002C90.8287 31.8002 91.2541 31.6935 91.5559 31.4799C91.8714 31.2665 92.0292 30.993 92.0292 30.6596C92.0292 30.2993 91.8372 30.0325 91.453 29.859C91.0826 29.6723 90.4858 29.4721 89.6626 29.2587C88.812 29.0586 88.1123 28.8518 87.5635 28.6384C87.0283 28.4248 86.5619 28.098 86.1641 27.6578C85.7799 27.2175 85.5878 26.6239 85.5878 25.8766C85.5878 25.263 85.7661 24.7027 86.1228 24.1957C86.4933 23.6888 87.0147 23.2885 87.6869 22.995C88.3729 22.7015 89.1756 22.5547 90.0948 22.5547C91.453 22.5547 92.5369 22.8882 93.3463 23.5554C94.1559 24.2091 94.6018 25.0962 94.684 26.2169H91.9264C91.8852 25.7767 91.6931 25.4297 91.3502 25.1763C91.0209 24.9094 90.575 24.776 90.0125 24.776C89.4911 24.776 89.0864 24.8694 88.7982 25.0563C88.5238 25.243 88.3866 25.5032 88.3866 25.8367C88.3866 26.2102 88.5787 26.497 88.9629 26.6971C89.347 26.884 89.9439 27.0775 90.7533 27.2775C91.5766 27.4776 92.2556 27.6844 92.7907 27.8978C93.3258 28.1114 93.7854 28.4449 94.1696 28.8985C94.5674 29.3387 94.7732 29.9257 94.787 30.6596C94.787 31.2999 94.6018 31.8735 94.2313 32.3806C93.8746 32.8875 93.3532 33.2877 92.6672 33.5812C91.995 33.8614 91.2061 34.0015 90.3006 34.0015Z" fill="white"/>
<path d="M101.515 34.0015C100.582 34.0015 99.7456 33.8414 99.0047 33.5212C98.2638 33.1877 97.6739 32.7408 97.2349 32.1804C96.8095 31.6201 96.5763 30.9997 96.5352 30.3193H99.4369C99.4918 30.7462 99.7045 31.0998 100.075 31.3799C100.459 31.6601 100.932 31.8002 101.495 31.8002C102.044 31.8002 102.469 31.6935 102.771 31.4799C103.086 31.2665 103.244 30.993 103.244 30.6596C103.244 30.2993 103.052 30.0325 102.668 29.859C102.297 29.6723 101.701 29.4721 100.877 29.2587C100.027 29.0586 99.3271 28.8518 98.7783 28.6384C98.2432 28.4248 97.7768 28.098 97.3789 27.6578C96.9947 27.2175 96.8027 26.6239 96.8027 25.8766C96.8027 25.263 96.981 24.7027 97.3377 24.1957C97.7082 23.6888 98.2296 23.2885 98.9018 22.995C99.5877 22.7015 100.39 22.5547 101.31 22.5547C102.668 22.5547 103.752 22.8882 104.561 23.5554C105.371 24.2091 105.817 25.0962 105.899 26.2169H103.141C103.1 25.7767 102.908 25.4297 102.565 25.1763C102.236 24.9094 101.79 24.776 101.227 24.776C100.706 24.776 100.301 24.8694 100.013 25.0563C99.7387 25.243 99.6015 25.5032 99.6015 25.8367C99.6015 26.2102 99.7935 26.497 100.178 26.6971C100.562 26.884 101.159 27.0775 101.968 27.2775C102.791 27.4776 103.47 27.6844 104.006 27.8978C104.541 28.1114 105 28.4449 105.384 28.8985C105.782 29.3387 105.988 29.9257 106.002 30.6596C106.002 31.2999 105.817 31.8735 105.446 32.3806C105.089 32.8875 104.568 33.2877 103.882 33.5812C103.21 33.8614 102.421 34.0015 101.515 34.0015Z" fill="white"/>
</g>
<defs>
<linearGradient id="paint0_linear_2155_1986" x1="3.37109" y1="8.13264" x2="80.2021" y2="8.13264" gradientUnits="userSpaceOnUse">
<stop stop-color="#3300FF"/>
<stop offset="1" stop-color="#50E9FE"/>
</linearGradient>
<clipPath id="clip0_2155_1986">
<rect width="106" height="34" fill="white"/>
</clipPath>
</defs>
</svg>
