<svg width="106" height="67" viewBox="0 0 106 67" fill="none" xmlns="http://www.w3.org/2000/svg">
<path d="M58.2752 5.65321C59.0662 5.29178 59.5936 5.15625 59.6375 5.15625L47.3329 7.3248C41.3564 8.09283 35.9951 8.86085 31.3369 9.5837C22.6797 10.8939 19.4718 11.5715 19.3399 11.6167L19.0762 11.6619L13.7589 17.535C13.1437 17.3995 12.1769 17.264 11.5616 17.535C11.0343 17.7609 10.7267 18.3934 10.5509 19.0711C6.42007 20.9234 1.49823 23.1823 1.01483 23.6793C0.267769 24.4473 -0.0398464 27.8808 0.00409864 28.2423C0.0480437 28.5585 0.223824 28.8296 1.7619 30.6819C2.06952 31.0433 2.46502 31.5403 2.55291 31.6758C2.59686 31.721 2.6408 31.8565 2.68475 31.992C3.29998 33.5733 3.60759 34.1154 4.04704 34.2961C4.26677 34.3865 4.61833 34.4317 7.91421 34.4317C8.17788 34.7027 9.58412 36.2388 10.5509 37.0068C12.2648 38.317 14.3741 38.8139 14.462 38.8139L15.6485 39.085L14.9015 38.0911C14.9015 38.0459 13.0997 35.6515 12.9239 33.1667C13.0118 33.1215 13.1437 33.0763 13.2755 33.0311C13.4073 32.986 13.5831 32.9408 13.715 32.8504C14.1544 33.257 15.4288 34.3865 15.7364 34.7479C16.088 35.1997 17.0108 36.0129 17.0108 36.0129C17.0108 36.0129 17.0548 35.3804 17.0987 34.6124C18.0216 35.9677 20.2628 39.3561 21.3614 41.6602C20.6143 40.9825 19.6915 40.4855 19.6915 40.4855C19.6915 40.4855 20.1309 42.2926 20.1749 42.7444C20.2188 42.9703 20.3067 43.8739 20.3946 44.5967C19.2081 44.0094 17.0987 42.9251 15.6925 42.0216L14.8136 41.4794L15.0333 42.5185C15.0333 42.6089 15.4728 44.5516 15.8683 45.5003C16.044 45.9069 16.3077 46.3135 16.5714 46.6749L16.1759 46.7653C16.0001 46.8105 15.8683 46.8556 15.6925 46.9008C15.6046 46.946 15.5167 46.946 15.4288 46.9912C15.3849 46.9912 15.3409 47.0363 15.253 47.0815C15.2091 47.0815 15.2091 47.1267 15.1651 47.1267C15.1212 47.1267 15.1212 47.1267 15.0772 47.1719L15.0333 47.2171C15.0333 47.2171 14.9894 47.2171 14.9454 47.2622C14.9015 47.3074 14.8575 47.3526 14.8575 47.3978C14.8575 47.4429 14.8136 47.4429 14.8136 47.4429L14.7696 47.4881C14.7257 47.5333 14.7257 47.5785 14.7257 47.6237C14.6817 47.6688 14.6817 47.714 14.6817 47.7592C14.6378 47.8947 14.6378 47.9399 14.6378 47.9851C14.6378 48.0303 14.6378 48.0754 14.6378 48.1658C14.6378 48.2562 14.6378 48.3465 14.6378 48.4369C14.6378 48.6176 14.6378 48.7983 14.6378 48.979C14.6378 49.3404 14.6817 49.7019 14.7257 50.1085C14.7257 50.1988 14.7696 50.3343 14.8136 50.5151C14.8136 50.5602 14.8575 50.6054 14.9015 50.6958C14.9454 50.741 14.9454 50.7861 15.0333 50.8765C15.0333 50.8765 15.0772 50.9217 15.1212 50.9668C15.1651 51.012 15.2091 51.012 15.2091 51.012L15.253 51.0572L15.3409 51.1024L15.3849 51.1476L15.4728 51.1927C15.6485 51.2831 15.8243 51.3283 15.9561 51.4186C16.1759 51.509 16.3517 51.5993 16.5714 51.6445L17.4063 53.5872L17.4942 53.8131L17.7139 53.9486C18.0216 54.1293 18.2852 54.2648 18.5489 54.4004C18.8126 54.5359 19.1202 54.6714 19.3839 54.807C19.9551 55.078 20.5264 55.3039 21.1417 55.4847C21.7129 55.7105 22.3282 55.8913 22.9434 56.0268C23.4268 56.1171 23.8663 56.2075 24.3936 56.2527C24.4375 55.9364 24.5694 55.6654 24.6573 55.3491C24.6573 55.3039 24.6573 55.3039 24.6573 55.2588C24.7012 55.078 24.7452 54.8973 24.7452 54.7618C24.6573 54.7166 24.6133 54.6263 24.6573 54.4907C24.6573 54.3552 24.7012 54.2648 24.7012 54.1293C24.6133 54.2648 24.5254 54.4456 24.4375 54.5811C23.5147 54.4907 22.5479 54.2197 21.6251 53.9034C21.0977 53.7227 20.5264 53.4968 20.043 53.2709C19.7794 53.1354 19.5157 53.045 19.252 52.9095C19.0762 52.8191 18.9005 52.7288 18.7247 52.6384L18.1973 51.4186C18.2852 51.2831 18.4171 51.1024 18.505 51.012C18.7686 50.741 22.1085 48.6176 22.1963 48.5724L17.6261 50.3343L17.3624 50.244C17.0548 50.1085 16.7472 50.0181 16.4395 49.8826C16.3956 49.7922 16.3077 49.7019 16.2638 49.6115C16.2638 49.4308 16.2198 49.2049 16.2198 49.0242C16.2198 48.8886 16.2198 48.7079 16.2198 48.5724C16.3517 48.5272 16.4395 48.482 16.5714 48.482L17.5382 48.211C18.1973 48.0303 18.8126 47.8947 19.4718 47.6688C19.6475 47.6237 19.7794 47.5785 19.9991 47.4881C20.043 47.4881 20.087 47.4429 20.1749 47.4429L20.2628 47.3978L20.3067 47.3526H20.3507L20.3946 47.3074L20.4385 47.2622H20.4825L20.7022 47.1267L21.4932 46.4942L23.0752 45.2292L26.2393 42.7444L26.5469 42.5185V42.1119C26.459 42.1571 26.3711 42.1571 26.2393 42.2023C26.0635 42.2475 25.8877 42.3378 25.7559 42.4282C25.5801 42.5185 25.4043 42.4282 25.3164 42.2475C25.0967 42.1571 25.0528 41.7957 25.2725 41.7053C25.2725 41.7053 25.2725 41.7053 25.3164 41.7053C25.0967 41.5698 25.1846 41.1632 25.4922 41.118C25.7998 41.118 26.0635 40.9825 26.3272 40.8921C26.3711 40.8921 26.459 40.8469 26.503 40.8469C26.459 40.1693 26.3272 39.5368 26.1514 38.9043C26.0196 38.4073 25.8438 37.9104 25.668 37.4134C25.4922 36.9165 25.3164 36.4195 25.0967 35.9677C24.7012 35.019 24.2178 34.0702 23.7344 33.2118C23.2071 32.3083 22.6797 31.4499 22.0645 30.6367C22.46 31.5854 22.7676 32.5342 23.1192 33.4829C23.4268 34.4317 23.6905 35.3804 23.9541 36.3291C21.0977 33.3926 17.1866 30.456 16.6593 30.3204C16.3517 30.2301 16.3077 30.2301 12.7921 31.4951C11.3419 31.992 9.40834 32.7149 9.01283 32.8052C8.92494 32.8052 8.79311 32.8052 8.57338 32.8052C6.55191 32.8052 5.2775 32.8052 4.75016 32.8052C4.57438 32.4438 4.26677 31.6758 4.13493 31.4047C4.04704 31.1788 4.0031 31.0433 3.95915 30.9529C3.87126 30.7722 3.69548 30.5463 2.94842 29.6428C2.86053 29.5072 2.72869 29.3717 2.59686 29.191C3.65154 28.6037 5.45328 27.2935 5.62906 27.158C5.71695 27.0224 5.89273 26.5255 6.02457 26.0737C6.24429 25.9382 6.37613 25.8026 6.46402 25.7575C6.77163 25.5767 15.0333 23.0016 15.0333 23.0016L20.4385 21.827C21.4932 20.8782 24.6133 17.3995 24.6133 17.3995C24.6133 17.3995 23.1192 17.7158 18.2852 19.794C16.4835 20.562 14.5499 21.4655 14.3302 21.6463C14.1544 21.7818 7.65054 24.5377 4.48649 25.3509C3.47576 25.3509 2.59686 25.3057 1.98163 25.3057C2.02557 25.125 2.06952 24.9443 2.15741 24.8539C2.81658 24.4021 6.85953 22.5498 10.6827 20.7879H12.0011C12.0011 20.1102 12.1329 19.297 12.2648 19.0259C12.5724 18.9807 13.2755 19.0711 13.8468 19.2066L14.3302 19.3422L19.9112 13.1528C20.2188 13.1076 20.7462 12.9721 21.6251 12.8365C22.4161 13.2883 24.042 14.3274 24.7452 15.4117C24.7452 15.4117 25.0088 13.198 24.2618 12.3847C24.9649 12.2492 25.7998 12.1137 26.7227 11.9781C27.5137 12.4299 29.1397 13.469 29.8428 14.5533C29.8428 14.5533 30.1065 12.4299 29.4033 11.5715C30.0625 11.4812 30.8096 11.3456 31.5566 11.2553C31.6445 11.2553 31.7764 11.2101 31.8643 11.2101C32.6992 11.7523 33.7978 12.5655 34.3691 13.3787C34.3691 13.3787 34.5449 11.8426 34.1933 10.8487C37.8408 10.3066 41.8837 9.76442 46.2343 9.1771C46.2782 9.22228 46.2782 9.31263 46.2343 9.40299C46.0585 9.89995 42.0595 13.198 41.3124 13.3787C40.5654 13.5594 39.1591 13.7401 38.3242 14.1467C37.2255 14.6888 36.7861 15.9086 36.7861 15.999C36.83 15.9086 37.4013 14.6437 38.7197 14.2822C40.038 13.9208 41.2685 14.1467 42.5429 13.3335C43.8173 12.5203 47.8602 9.99031 48.4755 9.94513C48.7391 9.89995 48.7391 10.3517 48.6513 10.8487L43.3339 16.7218L55.1112 13.9208C54.4959 15.6827 53.2655 18.9807 51.6395 22.595C50.1454 24.8087 48.2997 27.2032 46.5419 28.423C46.1464 27.8808 45.7509 27.3839 45.3554 26.8417C44.828 26.1189 44.3446 25.396 43.8612 24.628C43.9491 24.4473 44.081 24.2666 44.1689 24.0859C44.3886 23.7696 44.5644 23.4082 44.828 23.092C45.2675 22.4143 45.7509 21.7818 46.2343 21.1493C46.7177 20.5168 47.245 19.9295 47.8163 19.3422C48.3436 18.7549 48.9149 18.1675 49.5302 17.6254C48.871 18.0772 48.2118 18.529 47.5526 19.0259C46.8935 19.5229 46.2782 20.0198 45.663 20.562C45.2675 20.9234 44.872 21.2848 44.4765 21.6914C43.9491 22.1884 43.29 22.8209 42.7187 23.4986C41.4003 25.0346 41.4882 26.0737 41.4882 26.0737C42.8066 28.5133 44.5204 31.224 45.619 32.8504V32.7149H45.9706V32.3083H46.2343V31.9017H47.2011V31.6758H48.036V32.1728H47.9921V32.489H48.4315V34.4317H47.6845V35.8774H47.245V36.3743H45.9267V36.1936H45.7509V36.3743H45.4433V36.6906H44.9159V36.8713H44.4765C42.9384 38.4073 41.3124 39.582 39.9062 40.4403C40.082 40.3952 40.2138 40.35 40.3896 40.3048C40.7851 40.0789 41.1806 39.8982 41.5761 39.7175C41.7079 39.6271 41.9716 39.6723 42.0156 39.853C42.1034 39.853 42.1474 39.8078 42.2353 39.8078C42.5868 39.7175 42.7626 40.2145 42.455 40.35C42.3671 40.3952 42.2792 40.4855 42.1474 40.5307C42.1913 40.5759 42.1913 40.6211 42.1913 40.7114C42.1913 41.2535 42.1034 41.7957 42.0156 42.3378C42.0595 42.6993 41.9716 43.0607 41.9277 43.4221C41.9277 43.4673 41.9277 43.5125 41.9277 43.5576C41.9716 43.6028 41.9716 43.648 42.0156 43.6932C42.2353 44.4612 42.1034 45.2292 42.0156 45.9973C42.8066 45.8165 43.6415 45.681 44.4325 45.5455L44.6962 45.5003C45.3554 45.0485 46.0585 44.6871 46.8056 44.416C47.2011 44.2353 47.6405 44.0998 48.036 43.9191C48.3876 43.7383 48.7831 43.5576 49.1786 43.6028C49.3544 43.648 49.4862 43.7835 49.4862 43.9191C49.5302 43.9191 49.5741 43.8739 49.618 43.8739L49.5302 43.0607C49.7059 43.0607 49.9257 43.0607 50.1014 43.0607V42.8348C49.9696 42.7896 49.8817 42.6993 49.8817 42.5637C49.8817 42.3378 49.8817 42.0668 49.9257 41.8409C49.9696 41.3891 50.0136 40.9825 50.0136 40.5307C49.9257 40.4855 49.8378 40.3952 49.8378 40.2596C49.8378 40.0337 49.8378 39.8078 49.8378 39.582C49.7059 39.4916 49.662 39.3561 49.7499 39.1754C49.7938 39.1302 49.7938 39.0398 49.8378 38.9946C49.8378 38.9946 49.8378 38.9495 49.8817 38.9495C49.8817 38.6784 49.9257 38.4525 49.9257 38.1814V38.1363C49.7059 38.0459 49.618 37.7297 49.8817 37.5941C49.9257 37.5941 49.9257 37.5489 49.9696 37.5489C49.9696 37.4586 50.0136 37.4134 50.0136 37.3231V37.2779C50.0136 37.1875 50.0575 37.052 50.0575 36.9616H50.0136C49.7499 36.9165 49.7499 36.5098 49.9257 36.4195C50.0575 36.3291 50.1454 36.284 50.2772 36.2388C50.2772 36.2388 50.2772 36.2388 50.3212 36.2388C50.3212 36.1032 50.4091 35.9225 50.6288 35.9225C50.6727 35.9225 50.7606 35.9225 50.8046 35.9225C50.8485 35.9225 50.8485 35.8774 50.8925 35.8774C50.9364 35.8774 50.9364 35.8774 50.9803 35.8322V35.787C51.0682 35.6063 51.244 35.6063 51.3759 35.6515C51.6395 35.5611 51.9032 35.4708 52.1669 35.4256C52.1669 35.3804 52.2108 35.3804 52.2548 35.3352C52.3866 35.1997 52.5184 35.1093 52.6503 35.019C52.079 34.5672 51.5077 34.1154 50.9803 33.6636C50.7167 33.3474 50.4091 33.0763 50.1454 32.7601L53.0018 23.9052C55.5506 18.2127 57.1766 13.2883 57.1766 13.2431L57.616 11.8426L48.1679 14.0563L50.7167 11.2553C52.7381 8.72532 55.3748 6.87302 58.2752 5.65321ZM19.8233 45.7262L19.6475 45.8617C19.5157 45.9069 19.3839 45.9521 19.2081 45.9973C18.7247 46.1328 18.1973 46.2683 17.67 46.4039C17.3624 46.0424 17.0108 45.5455 16.835 45.0937C16.6153 44.6419 16.4395 43.9191 16.3077 43.3317C17.67 44.0998 19.252 44.9582 20.2628 45.4099L19.8233 45.7262ZM12.1329 33.4377C12.3087 35.019 13.0118 36.555 13.5392 37.5038C12.8361 37.2327 11.9132 36.8261 11.0782 36.1936C10.463 35.7418 9.67201 34.9286 9.14467 34.3413C9.49623 34.3413 10.1115 34.1606 12.1329 33.4377Z" fill="white"/>
<path d="M18.2851 27.9205C17.8457 27.7398 14.5938 27.4688 14.5938 27.4688C14.5938 27.4688 18.6367 28.8241 20.79 30.8119C20.79 30.8119 18.7246 28.1012 18.2851 27.9205Z" fill="white"/>
<path d="M12.4843 25.8438C12.4843 25.8438 11.957 27.1087 6.81543 28.2834C6.81543 28.2834 11.122 27.4702 12.2207 26.928C13.2754 26.3407 12.4843 25.8438 12.4843 25.8438Z" fill="white"/>
<path d="M12.2212 28.4688C12.2212 28.4688 11.6938 29.6434 6.90381 30.7277C6.90381 30.7277 10.9028 29.9596 11.9575 29.4627C12.9682 28.9657 12.2212 28.4688 12.2212 28.4688Z" fill="white"/>
<path d="M32.3476 17.7109L25.7998 17.8465L29.3593 18.9759C26.8105 24.578 20.834 26.9273 20.834 26.9273C31.5126 24.8039 32.3476 17.7109 32.3476 17.7109Z" fill="white"/>
<path d="M28.436 28.4687C28.436 28.4687 29.8423 32.6251 29.4468 38.9049C29.4468 38.9049 31.4682 34.8388 31.9516 29.3271C31.9516 29.3271 35.687 24.222 36.5659 18.4844C36.6098 18.5296 33.9292 24.4479 28.436 28.4687Z" fill="white"/>
<path d="M34.6768 31.2577C34.6768 31.2577 35.6875 34.0587 35.5117 38.3507C35.5117 38.3507 36.8301 35.5496 37.0937 31.7998C37.0937 31.7998 39.5547 28.2759 40.1259 24.3906C40.1259 24.3906 38.3681 28.4567 34.6768 31.2577Z" fill="white"/>
<path d="M94.0027 0L63.5928 8.08688L64.8232 4.78888L94.0027 0Z" fill="white"/>
<path d="M106 3.21094L57.4409 24.5802L60.0776 17.5324L61.1762 14.5958L106 3.21094Z" fill="white"/>
<path d="M64.1645 30.0904C64.2084 30.0904 64.2524 30.0452 64.2524 30.0452C64.1206 29.9097 64.1206 29.6838 64.3403 29.5934C65.0873 29.232 65.9223 29.0061 66.7133 28.8254C66.6694 28.6899 66.7573 28.5091 66.933 28.464C67.3725 28.3284 67.8559 28.1477 68.2953 28.0122C68.4711 27.967 68.6469 27.9218 68.7787 27.8315C68.7787 27.7411 68.8227 27.6959 68.8666 27.6056C69.1742 27.199 69.7455 27.0634 70.185 27.0183C70.4486 26.9731 70.7123 26.9731 71.0199 26.9731C71.2836 26.8827 71.5912 26.7472 71.8549 26.6568C72.0307 26.5665 72.2064 26.4761 72.3383 26.3858C72.4262 26.3406 72.4701 26.3406 72.5141 26.3406C72.558 26.3406 72.558 26.2954 72.6019 26.2954C72.7338 26.1599 72.8656 26.0695 72.9535 25.9792C73.2611 25.7533 73.6127 25.5274 74.0082 25.5274C74.14 25.5274 74.2719 25.5726 74.3597 25.6629L86.5765 18.9766L55.2876 32.53L58.0561 34.5178C58.0561 33.6594 58.4516 32.8011 58.8032 32.033C58.8471 31.9427 58.935 31.8975 59.0229 31.8975C59.0669 31.8071 59.1108 31.6716 59.2427 31.6716C60.1216 31.3554 61.0005 31.1746 61.8794 30.9488C62.0112 30.9036 62.143 30.9939 62.187 31.0843C62.4946 30.9488 62.8022 30.8132 63.1098 30.7229C63.3735 30.6325 63.5932 30.5422 63.8569 30.4066C63.9448 30.2711 64.0327 30.1356 64.1645 30.0904Z" fill="white"/>
<path d="M31.1167 51.5064C31.7319 51.2353 32.3911 50.9643 33.0063 50.6932C33.1821 50.6029 33.3139 50.4221 33.3139 50.1962C33.3139 49.9704 33.3139 49.6993 33.3579 49.4734C33.3579 49.2927 33.226 49.1572 33.0503 49.2475C32.8305 49.3379 32.6548 49.4282 32.435 49.5186C32.2153 49.6089 32.0395 49.6993 31.8198 49.7896C31.6001 49.88 31.3364 49.9704 31.1167 50.1059C30.4575 50.377 29.7983 50.648 29.1392 50.9643C29.0952 51.4612 29.0952 51.9582 29.0513 52.41C29.1392 52.3648 29.271 52.3196 29.3589 52.2744C30.0181 52.0034 30.5454 51.7775 31.1167 51.5064Z" fill="white"/>
<path d="M31.4248 56.6058C30.8535 56.8768 30.2383 57.1027 29.667 57.3738C29.1836 57.5997 28.7441 57.7804 28.2607 57.9611C28.2607 58.5484 28.2168 59.1809 28.1729 59.7682C28.6123 59.5875 29.0957 59.3616 29.5791 59.1809C30.1504 58.9098 30.7656 58.6839 31.3369 58.4129C31.4687 58.3677 31.6006 58.187 31.6006 58.0063C31.6006 57.5997 31.6445 57.1931 31.6445 56.7865C31.6885 56.6058 31.6006 56.5154 31.4248 56.6058Z" fill="white"/>
<path d="M31.9526 47.6572C32.1723 47.5669 32.3481 47.4765 32.5679 47.3862C32.7876 47.2958 32.9634 47.2054 33.1831 47.1151C33.3589 47.0247 33.4907 46.7988 33.4907 46.6181C33.4907 46.3922 33.4907 46.1212 33.5346 45.8953C33.5346 45.7146 33.4028 45.579 33.227 45.6694C32.6118 45.9405 31.9526 46.2115 31.3374 46.4826C30.81 46.7085 30.2388 46.9796 29.6675 47.2054C29.5796 47.2506 29.4478 47.2958 29.3599 47.341C29.3159 47.8379 29.3159 48.3349 29.272 48.7867C29.9311 48.5156 30.5903 48.2445 31.2495 47.9283C31.4692 47.8379 31.6889 47.7476 31.9526 47.6572Z" fill="white"/>
<path d="M64.3391 28.8229C64.2512 28.868 64.2073 28.9132 64.1194 28.9132L63.6799 29.1391V29.0487L57.5716 31.6691C57.5716 31.6691 57.7913 32.663 57.7913 32.9341C57.7913 33.2051 57.8792 38.8976 57.8792 38.9879C57.8792 39.0783 55.5062 40.1174 55.3743 40.2077C55.1985 40.2981 54.7151 39.9367 54.7151 39.9367C54.7151 39.9367 54.803 33.0244 55.2864 32.663L49.222 35.2833L49.1781 36.0965C49.1341 36.9549 49.0902 37.7681 49.0902 38.6265L49.0023 41.2017C49.0023 41.4727 48.9583 41.7438 48.9583 42.0149L48.9144 42.8732H48.6068C48.5189 42.8732 48.4749 42.8732 48.3871 42.8732C48.1673 42.8732 47.9476 42.9184 47.7718 43.0088L42.806 45.1321L42.8939 43.5057C42.8939 43.2347 42.9379 42.9184 42.9379 42.6473L42.9818 41.7438L43.1137 37.994L37.0492 40.6143V41.1565L36.7416 41.0661C36.6098 41.0661 36.5219 41.0209 36.434 41.0209C36.1264 41.0209 35.8627 41.0661 35.5551 41.2017L24.7007 45.855L24.6567 46.6682C24.6128 47.6169 24.5688 48.5657 24.5249 49.5144C24.481 50.4632 24.437 51.4119 24.3931 52.3606L24.2173 56.4267V56.517V56.9688L24.1733 57.8724L23.9976 62.2998C23.9976 62.5257 23.9536 62.7516 23.9536 62.9775V63.3389V63.3841V63.7907C23.9536 64.1973 23.9097 64.6039 23.9097 65.0105L23.8218 66.9983L29.271 64.6491L29.3149 63.8359C29.3149 63.61 29.3149 63.4293 29.3589 63.2034L29.4028 62.5257L30.062 63.1582C30.3696 63.4744 30.7651 63.6552 31.2045 63.6552C31.4682 63.6552 31.6879 63.61 31.9516 63.5196L37.0492 61.3059L39.598 60.2216L47.9916 56.6074L57.8792 52.3606L57.9231 51.5474C57.9671 51.0505 57.9671 50.5535 58.011 50.0566V49.5596L58.4505 49.8307C58.8899 50.1017 59.3294 50.418 59.7249 50.6891H59.7688C60.0325 50.8698 60.3841 50.9601 60.6917 50.9601C60.9553 50.9601 61.219 50.9149 61.4827 50.7794L64.8225 49.3337V48.9271L65.1301 48.9723C65.1741 48.9723 65.262 48.9723 65.3059 48.9723C65.5696 48.9723 65.8332 48.9271 66.0969 48.7916L73.4357 45.6291C74.4025 45.2225 75.1496 44.093 75.1935 42.9636C75.1935 42.7377 75.1935 42.557 75.2375 42.3763L75.2814 41.1565C75.2814 40.8854 75.2814 40.5692 75.3254 40.2981L75.3693 39.4397L75.4133 37.994C75.4133 37.9488 75.4133 37.9036 75.4133 37.8133L75.4572 37.1356V37.0904C75.4572 37.0001 75.4572 36.9097 75.4572 36.8194C75.4572 36.729 75.4572 36.6387 75.4572 36.5031L75.5011 34.4249L75.5451 33.7021L75.6769 30.9914L74.6662 31.4432V30.9914C74.6662 30.8559 74.6662 30.7203 74.6662 30.5848V30.5396C74.6662 30.3137 74.6662 30.0878 74.7101 29.8619L74.7541 29.1843L74.8859 29.0939C75.4133 28.7325 75.8088 28.1 75.8527 27.4223C75.8527 27.1964 75.8967 26.9705 75.8967 26.7447V26.6091V26.4736C75.8967 26.2477 75.8967 26.067 75.9406 25.8411L75.8527 23.8984L64.3391 28.8229ZM25.5796 54.2129C25.6235 53.6256 25.6235 53.0383 25.6675 52.4058C25.7114 51.4571 25.7554 50.5083 25.7993 49.5596C25.8432 48.6109 25.8872 47.6621 25.9311 46.7134C27.1177 46.2164 28.3042 45.6743 29.4907 45.1773C30.1499 44.9063 30.809 44.6352 31.4682 44.3189C33.0063 43.6864 34.5004 43.0088 36.0385 42.3311C36.6977 42.06 37.225 42.4215 37.1811 43.1895C37.1371 43.9123 37.1371 44.6352 37.0932 45.358C37.0932 45.7646 36.8735 46.2616 36.6098 46.623C36.8735 46.7586 37.0053 47.0748 37.0053 47.4814C36.9613 48.2043 36.9613 48.9271 36.9174 49.65C36.8735 50.418 36.3022 51.2764 35.643 51.5474C34.1049 52.2251 32.5668 52.8576 31.0727 53.5353C30.4135 53.8063 29.7544 54.0774 29.0952 54.3937C27.9087 54.8906 26.7222 55.4328 25.5356 55.9297C25.5356 55.4328 25.5356 54.8003 25.5796 54.2129ZM34.5883 56.1104C34.5883 56.6074 34.5444 57.1043 34.5444 57.6013C34.5004 58.2338 34.061 58.9566 33.5336 59.1825C33.3139 59.2729 33.0942 59.3632 32.8305 59.4988C33.0942 59.7698 33.3579 60.0409 33.6215 60.312C33.8852 60.5831 34.1489 60.8541 34.4125 61.1252C33.4457 61.5318 32.479 61.9384 31.5561 62.345C31.5122 62.345 31.4682 62.3902 31.4243 62.3902C31.2045 62.4805 30.9848 62.4805 30.853 62.345C30.4135 61.8932 29.9301 61.4414 29.4907 60.9445C29.0512 61.1252 28.6118 61.3059 28.1723 61.4866C28.1723 61.7125 28.1723 61.9384 28.1284 62.1643C28.0844 62.7064 28.0844 63.2937 28.0405 63.8359C27.0737 64.2425 26.063 64.6943 25.0962 65.1009C25.1401 64.5587 25.1401 63.9714 25.1841 63.4293C25.1841 63.0678 25.228 62.7064 25.228 62.3902C25.272 61.577 25.3159 60.7638 25.3159 59.9506C25.3599 59.1374 25.4038 58.3241 25.4038 57.5109C26.2827 57.1043 27.2055 56.7429 28.0844 56.3363C28.1723 56.2911 28.2602 56.246 28.3042 56.246C28.7436 56.0652 29.227 55.8394 29.7104 55.6586C31.0288 55.1165 32.3471 54.5292 33.6655 53.9419C34.1928 53.716 34.6323 54.0322 34.5883 54.6647C34.6323 55.1165 34.6323 55.6135 34.5883 56.1104ZM38.4994 55.6135C38.4555 56.8784 38.4115 58.1434 38.3236 59.4084C37.3569 59.815 36.3461 60.2668 35.3793 60.6734C35.4233 59.4084 35.4672 58.1434 35.5551 56.8784C35.5991 55.6135 35.643 54.3485 35.7309 53.0835C36.6977 52.6769 37.6645 52.2251 38.6752 51.8185C38.6313 53.0383 38.5434 54.3033 38.4994 55.6135ZM38.1918 50.1017C37.9721 49.921 37.8842 49.65 37.8842 49.2885C37.9281 48.5657 37.9281 47.8428 37.9721 47.1652C38.016 46.4423 38.016 45.7195 38.06 45.0418C38.06 44.9514 38.06 44.8159 38.06 44.7255C38.1039 44.1834 38.1039 43.6413 38.1479 43.0991C38.1479 42.557 38.1918 42.0149 38.2358 41.4727C39.4223 40.9758 40.6088 40.4788 41.7953 39.9367C41.7514 40.524 41.7514 41.1113 41.7074 41.7438C41.6635 42.3311 41.6635 42.9184 41.6195 43.5057C41.5756 44.2286 41.5756 44.9063 41.5316 45.6291C41.5316 45.9905 41.4877 46.352 41.4877 46.7134C41.4877 46.7586 41.4877 46.7586 41.4877 46.8037C41.4877 46.9393 41.6195 47.0296 41.7514 46.9393C41.9271 46.8489 42.1029 46.7586 42.2787 46.7134C42.4984 46.623 42.6742 46.5327 42.8939 46.4423C42.9379 46.3971 43.0258 46.3971 43.0697 46.352C43.1137 46.3068 43.2015 46.3068 43.2455 46.2616C43.4652 46.1712 43.6849 46.0809 43.9047 45.9905C44.2123 45.855 44.476 45.7646 44.7836 45.6291C44.9593 45.5387 45.0912 45.4936 45.267 45.4032C45.3549 45.358 45.3988 45.358 45.4427 45.3129C45.7064 45.1773 45.9701 45.087 46.2777 44.9514C46.4974 44.8611 46.7171 44.7707 46.9369 44.6804C47.1127 44.59 47.2884 44.5448 47.4203 44.4545C47.6839 44.3641 47.9037 44.2286 48.1673 44.1382C48.431 44.0479 48.6068 44.1834 48.6068 44.4545C48.6068 44.7255 48.5628 45.0418 48.5628 45.3129C48.5628 45.5387 48.5628 45.8098 48.5189 46.0357C48.3431 46.1261 48.1673 46.1712 47.9916 46.2616C47.7718 46.352 47.5082 46.4875 47.2884 46.5778C46.1019 47.0748 44.9154 47.5718 43.7728 48.1139C43.5531 48.2043 43.3334 48.2946 43.1137 48.385C42.806 48.5205 42.4545 48.656 42.1469 48.7916C41.9271 48.8819 41.7514 48.9723 41.5316 49.0626C41.4877 49.0626 41.4437 49.1078 41.4437 49.1078C41.0482 49.2885 40.6967 49.4241 40.3012 49.6048C39.8178 49.7855 39.3783 50.0114 38.9389 50.1921C38.7191 50.3276 38.4115 50.2824 38.1918 50.1017ZM48.8265 47.9784C48.8265 48.2043 48.8265 48.4753 48.7826 48.7012C48.7826 48.9271 48.6068 49.1982 48.3871 49.2885C48.1673 49.3789 47.9916 49.4692 47.7718 49.5596C47.6839 49.6048 47.596 49.65 47.5082 49.6951C46.4095 50.1469 45.3548 50.6439 44.2562 51.0957H44.2123C43.7728 51.2764 43.3334 51.4571 42.8939 51.683C42.7621 51.7281 42.6303 51.9089 42.6303 52.0896C42.6303 52.3155 42.6303 52.4962 42.5863 52.6769C42.5863 52.8124 42.6742 52.9028 42.806 52.8576C43.2455 52.6769 43.6849 52.451 44.1683 52.2703H44.2123C45.3988 51.7733 46.5414 51.2764 47.7279 50.7794C48.2552 50.5535 48.6947 50.8698 48.6507 51.5023C48.6507 51.9089 48.6068 52.3155 48.6068 52.6769C48.6068 53.0835 48.5628 53.4901 48.5628 53.8515C48.5189 54.484 48.0794 55.2069 47.5521 55.4328C46.3656 55.9297 45.223 56.4267 44.0365 56.9688H43.9926C42.806 57.4658 41.6635 57.9627 40.4769 58.4597C40.2572 58.55 39.9936 58.6856 39.7738 58.7759C39.6859 58.8211 39.5981 58.8663 39.5102 58.9115C39.5102 58.7308 39.5102 58.5049 39.5541 58.3241C39.5541 58.0983 39.598 57.8272 39.598 57.6013C39.598 57.3754 39.7738 57.1043 39.9936 57.014C40.2133 56.9236 40.3891 56.8333 40.6088 56.7429C40.6967 56.6977 40.7846 56.6526 40.8725 56.6074C41.9711 56.1556 43.0258 55.6586 44.1244 55.2069H44.1683C44.6078 55.0261 45.0472 54.8454 45.4867 54.6195C45.6185 54.5744 45.7504 54.3937 45.7504 54.2129C45.7504 53.987 45.7504 53.8063 45.7943 53.6256C45.7943 53.4901 45.7064 53.3997 45.5746 53.4449C45.1351 53.6256 44.6957 53.8515 44.2123 54.0322H44.1683C42.9818 54.5292 41.8392 55.0261 40.6527 55.5231C40.1254 55.749 39.6859 55.4328 39.6859 54.8003C39.6859 54.3937 39.7299 53.9871 39.7299 53.6256C39.7299 53.219 39.7738 52.8124 39.7738 52.451C39.8178 51.8185 40.2572 51.0957 40.8285 50.8698C42.015 50.3728 43.1576 49.8758 44.3441 49.3789C44.3441 49.3789 44.3441 49.3789 44.3881 49.3789C45.5746 48.8819 46.7171 48.385 47.9037 47.8428C48.1234 47.7525 48.3871 47.6169 48.6068 47.5266C48.6947 47.4814 48.7826 47.4362 48.8705 47.391C48.8265 47.6169 48.8265 47.7977 48.8265 47.9784ZM50.1009 44.0479C50.1449 43.4154 50.1449 42.7377 50.1888 42.1052C50.1888 41.8341 50.1888 41.5631 50.2327 41.292C50.2767 40.4336 50.3206 39.5752 50.3206 38.762C50.3646 37.9036 50.4085 37.0453 50.4085 36.1869C51.595 35.6899 52.7816 35.1478 53.9681 34.6508C53.9241 35.5092 53.8802 36.3676 53.8802 37.226C53.8362 38.0844 53.7923 38.9427 53.7923 39.7559C53.7923 40.027 53.7484 40.2981 53.7484 40.5692C53.7484 40.8402 53.7044 41.1565 53.7044 41.4275C53.7044 41.6083 53.8362 41.7438 54.012 41.6534C54.4515 41.4727 54.8909 41.2468 55.3743 41.0661C56.3411 40.6595 57.264 40.2529 58.2307 39.8463C58.4065 39.756 58.5384 39.5752 58.5384 39.3493C58.5384 39.1686 58.5384 38.9427 58.5823 38.762C58.5823 38.4006 58.6263 38.0392 58.6263 37.6778C58.6702 36.8194 58.7141 35.961 58.7141 35.1026C58.7581 34.2442 58.802 33.3858 58.802 32.5726C59.9885 32.0757 61.1751 31.5335 62.3616 31.0366C62.3176 31.895 62.2737 32.7533 62.2737 33.6117C62.2297 34.4701 62.1858 35.3285 62.1858 36.1869C62.1858 36.5483 62.1419 36.9097 62.1419 37.2712C62.0979 37.8133 62.0979 38.4006 62.054 38.9427C62.01 39.7108 61.4387 40.5692 60.7796 40.8402C58.9339 41.6534 57.0882 42.4215 55.2864 43.2347C53.9241 43.822 52.6058 44.4093 51.2874 44.9514C50.5843 45.2225 50.057 44.8159 50.1009 44.0479ZM52.7376 49.4692C52.6937 50.7342 52.6497 51.9992 52.5618 53.2642C51.595 53.6708 50.5843 54.1226 49.6175 54.5292C49.6615 53.2642 49.7054 51.9992 49.7933 50.7342C49.8372 49.4692 49.8812 48.2043 49.9691 46.9393C50.9359 46.5327 51.9027 46.0809 52.9134 45.6743C52.8255 46.9393 52.7816 48.2043 52.7376 49.4692ZM63.6799 44.7707C63.636 46.0357 63.592 47.3007 63.5042 48.5657C62.6252 48.9271 61.7464 49.3337 60.9114 49.6951C60.6917 49.7855 60.4719 49.7855 60.2962 49.6951C59.7249 49.2885 59.1097 48.9271 58.5384 48.5205C57.9671 48.1139 57.3518 47.7525 56.7806 47.3459C56.7366 48.0235 56.7366 48.7464 56.6927 49.4241C56.6487 50.1017 56.6487 50.8246 56.6048 51.5023C55.638 51.9089 54.6273 52.3606 53.6605 52.7672C53.7044 51.5023 53.7484 50.2373 53.8362 48.9723C53.8802 47.7073 53.9241 46.4423 54.012 45.1773C54.8909 44.8159 55.7259 44.4545 56.6048 44.0479C56.8245 43.9575 57.0442 43.9575 57.22 44.0479C57.7913 44.4545 58.4065 44.8159 58.9778 45.2225C59.5491 45.6291 60.1643 45.9905 60.7356 46.3971C60.7796 45.7195 60.7796 44.9966 60.8235 44.3189C60.8675 43.6413 60.8675 42.9184 60.9114 42.2407C61.8782 41.8341 62.845 41.3824 63.8557 40.9758C63.8118 42.2407 63.7239 43.5057 63.6799 44.7707ZM74.1389 37.0904C74.1389 37.3163 74.0949 37.5874 74.0949 37.8133C74.0949 38.0392 73.9191 38.3102 73.6994 38.4006C73.4797 38.491 73.3039 38.5813 73.0842 38.6717C72.5129 38.8976 71.9855 39.1686 71.4582 39.3945C71.2824 39.4849 71.1066 39.5752 70.8869 39.6204C70.4475 39.8011 69.9641 40.027 69.5246 40.2077H69.4807C68.9533 40.4336 68.4699 40.6595 67.9866 40.8402C67.8547 40.8854 67.7668 41.0209 67.7229 41.1565C67.7229 41.2016 67.7229 41.2016 67.7229 41.2468C67.6789 41.8341 67.6789 42.4215 67.635 43.0088C67.591 43.5961 67.591 44.1834 67.5471 44.7707C67.5471 44.8159 67.5471 44.8159 67.5471 44.8159C67.5471 44.9514 67.6789 44.9966 67.7668 44.9514C68.2942 44.7255 68.7776 44.4996 69.261 44.3189C69.7443 44.093 70.1838 43.9123 70.6672 43.7316C70.7551 43.6864 70.843 43.5961 70.8869 43.4606C70.8869 43.4154 70.9309 43.3702 70.9309 43.325C70.9309 43.054 70.9309 42.7829 70.9748 42.5118C70.9748 42.4666 70.9748 42.4666 70.9748 42.4215C70.4035 42.6473 69.8762 42.9184 69.3049 43.1443C69.1731 43.1895 69.0412 43.2347 68.9533 43.2798C68.7336 43.3702 68.6018 43.2347 68.6018 43.0088C68.6018 42.557 68.6457 42.1504 68.6457 41.6986C68.8655 41.6083 69.1291 41.4727 69.3928 41.3824C70.2717 41.0209 71.1506 40.6143 72.0295 40.2529C72.6887 39.9818 73.3039 39.7108 73.9631 39.3945C73.9631 39.9818 73.9191 40.5692 73.8752 41.1113C73.8752 41.1565 73.8752 41.1565 73.8752 41.2017C73.8752 41.5631 73.8312 41.9245 73.8312 42.2407C73.8312 42.4666 73.8312 42.6473 73.7873 42.8732C73.7433 43.5057 73.3039 44.2286 72.7766 44.4545C72.3811 44.6352 72.0295 44.7707 71.634 44.9514C70.799 45.3129 69.9641 45.6743 69.1731 46.0357C67.9426 46.5778 66.7121 47.12 65.4377 47.6169C64.9104 47.8428 64.4709 47.5266 64.4709 46.8941C64.4709 46.6682 64.4709 46.4423 64.5149 46.2616C64.5588 45.4936 64.5588 44.7255 64.6028 43.9123C64.6467 43.1443 64.6907 42.3311 64.6907 41.5631C64.7346 40.9306 65.1741 40.2077 65.7014 39.9818C66.0969 39.8011 66.4485 39.6656 66.844 39.4849C67.6789 39.1235 68.5578 38.762 69.4367 38.3554H69.4807C69.9641 38.1295 70.4475 37.9488 70.9309 37.7229C71.1066 37.6326 71.2385 37.5874 71.4143 37.497C71.59 37.4067 71.7658 37.3615 71.9416 37.2712C72.3371 37.0904 72.6887 36.9549 73.0842 36.7742C73.3918 36.6387 73.7433 36.5031 74.051 36.3676C74.1828 36.729 74.1389 36.9097 74.1389 37.0904ZM74.5344 26.5188C74.5344 26.7898 74.4904 27.1061 74.4904 27.3772C74.4904 27.6482 74.2707 28.0096 74.007 28.1C73.7433 28.1904 73.5236 28.3259 73.26 28.4162C73.0842 28.5066 72.9084 28.5518 72.7326 28.6421C72.5129 28.7325 72.2932 28.8228 72.0734 28.9132C71.8098 29.0487 71.5461 29.1391 71.2385 29.2746C71.1506 29.3198 71.1066 29.3198 71.0627 29.365C70.8869 29.4553 70.7551 29.5005 70.5793 29.5909C70.2717 29.7264 70.008 29.8168 69.7004 29.9523C69.3928 30.0878 69.0412 30.2234 68.7336 30.3589C68.6457 30.4041 68.6018 30.4041 68.5578 30.4493C68.3381 30.5396 68.1623 30.63 67.9426 30.7203C67.7668 30.8107 67.591 30.901 67.4153 30.9462C67.2834 30.9914 67.1516 31.1721 67.1076 31.3528C67.1076 31.398 67.1076 31.398 67.1076 31.4432C67.1076 31.8046 67.0637 32.166 67.0637 32.5275C67.3274 32.3919 67.591 32.3016 67.8987 32.166C68.2063 32.0305 68.5139 31.895 68.8215 31.7594C69.1291 31.6239 69.4367 31.4884 69.7004 31.3528C70.1399 31.1721 70.5793 30.9914 71.0188 30.8107C71.634 30.5396 72.2932 30.2685 72.9084 29.9975C73.0842 29.9071 73.26 29.8619 73.4357 29.7716C73.4357 29.9975 73.3918 30.2685 73.3918 30.4944C73.3918 30.7655 73.3478 31.0818 73.3478 31.3528C73.3478 31.6239 73.1281 31.9853 72.8644 32.0757C72.6008 32.166 72.3371 32.3016 72.1174 32.3919C71.9416 32.4823 71.7658 32.5275 71.59 32.6178C71.3703 32.7082 71.1066 32.7985 70.8869 32.9341C70.1399 33.2503 69.4367 33.5665 68.6897 33.8828C68.3821 34.0183 68.0744 34.1539 67.7668 34.2894C67.635 34.3346 67.5032 34.4249 67.3713 34.4701C67.2395 34.5153 67.1076 34.6056 66.9319 34.6508C66.9319 35.0123 66.8879 35.3737 66.8879 35.7351C66.8879 35.7803 66.8879 35.7803 66.8879 35.8255C66.9319 35.961 67.0198 36.0513 67.1955 35.961C67.3713 35.8706 67.5471 35.8255 67.7229 35.7351C67.9426 35.6447 68.1184 35.5544 68.3381 35.464C69.0412 35.1478 69.7443 34.8767 70.4475 34.5605C70.5793 34.5153 70.7111 34.4701 70.843 34.3798C71.59 34.0635 72.2932 33.7473 73.0402 33.431C73.26 33.3407 73.5236 33.2503 73.7433 33.1148C73.9191 33.0244 74.0949 32.9792 74.2707 32.8889C74.2707 33.1148 74.2267 33.3858 74.2267 33.6117C74.2267 33.8828 74.1828 34.199 74.1828 34.4701C74.1828 34.7412 73.9631 35.1026 73.6994 35.193C73.4357 35.2833 73.216 35.4189 72.9523 35.5092C72.7766 35.5996 72.6008 35.6447 72.425 35.7351C72.2053 35.8255 71.9855 35.9158 71.7219 36.0062C70.3596 36.5935 68.9973 37.1808 67.591 37.7681C66.9758 38.0392 66.3606 38.3103 65.7454 38.5813C65.262 38.762 64.8225 38.9879 64.3831 39.1686C63.7239 39.4397 63.1965 39.0783 63.2405 38.3103C63.2405 38.0392 63.2844 37.7681 63.2844 37.5422C63.3284 36.5935 63.3723 35.6447 63.4163 34.696C63.4602 33.7473 63.5042 32.7985 63.5481 31.8498C63.5481 31.4884 63.7239 31.0818 63.9436 30.7203C64.1633 30.3589 64.4709 30.0878 64.8225 29.9071C65.262 29.7264 65.7454 29.5005 66.1848 29.3198C66.5803 29.1391 66.9319 29.0036 67.3274 28.8229C67.3713 28.8229 67.3713 28.7777 67.4153 28.7777C67.635 28.6873 67.8108 28.597 68.0305 28.5066C68.3381 28.3711 68.6457 28.2355 68.9973 28.1C69.261 27.9645 69.5246 27.8741 69.7883 27.7386C70.9748 27.2416 72.1174 26.7447 73.3478 26.2025C73.5676 26.1122 73.8312 26.0218 74.051 25.8863C74.2267 25.7959 74.4025 25.7507 74.5783 25.6604C74.5783 26.067 74.5344 26.2929 74.5344 26.5188Z" fill="white"/>
<path d="M55.0225 39.896L57.3515 38.9021V38.6762C57.3515 38.5406 57.3515 38.1792 57.3515 38.1792C57.3515 37.9985 57.3955 37.1853 57.3955 36.9142L57.6152 31.7188L55.3301 32.7127L55.1103 37.1853L55.0225 39.896Z" fill="white"/>
<path d="M74.2275 26.3438L74.1397 26.3889H74.0957C74.1836 26.3889 74.2275 26.3889 74.2275 26.3438Z" fill="white"/>
<path d="M54.4517 34.3395C54.5835 34.0232 54.6714 33.7973 54.7153 33.6166C54.7153 33.6166 54.8032 33.21 54.979 33.0745C54.979 33.0745 55.0669 32.9841 55.1987 32.8486C55.1987 32.8486 55.2427 32.8034 55.2866 32.7582C55.2866 32.7582 55.2866 32.7582 55.3306 32.7582C55.3745 32.7582 55.3745 32.7582 55.4185 32.7582C55.5942 32.7131 55.814 32.6679 55.9897 32.6679C56.1655 32.6227 56.3852 32.5323 56.561 32.4872C56.7368 32.3968 56.9126 32.3065 57.1323 32.2161C57.7036 32.0354 58.2749 31.8547 58.8022 31.7191C60.2085 31.2222 61.6147 30.7704 63.0209 30.2734C61.4389 31.0415 59.813 31.8095 58.187 32.5775C58.143 33.3907 58.0991 34.2039 58.0552 35.0171C58.0991 36.508 58.143 37.9537 58.187 39.4446C56.8686 40.0319 55.5063 40.6192 54.188 41.2065C54.3198 38.8573 54.4077 36.5984 54.4517 34.3395Z" fill="white"/>
<path d="M43.8607 37.6388C43.8168 37.5936 43.8168 37.5485 43.7728 37.5485V37.5936C43.7728 37.6388 43.7728 37.684 43.7728 37.684C43.7289 37.7292 43.7289 37.7292 43.6849 37.7292C43.2016 37.9099 42.7621 38.1358 42.2787 38.3165C41.3998 38.7231 40.477 39.0845 39.5981 39.4911C39.5541 39.4911 39.5541 39.4911 39.5102 39.5363C39.4223 39.4459 39.3783 39.4008 39.2904 39.3104H39.2465C38.807 39.4911 38.4115 39.6718 37.9721 39.8525C37.9281 39.8525 37.9281 39.8977 37.8842 39.9429C37.8403 40.0333 37.7524 40.1688 37.7084 40.2591C37.6645 40.3043 37.6645 40.3043 37.6205 40.3495C37.1371 40.5302 36.6977 40.7561 36.2143 40.9368C34.5883 41.6597 32.9184 42.3825 31.2924 43.0602C30.5454 43.3764 29.7544 43.6927 29.0073 44.0541C28.1284 44.4607 27.2495 44.8221 26.3706 45.1836C26.3267 45.1836 26.3267 45.2287 26.2827 45.2287C26.2827 45.0932 26.2827 44.9577 26.3267 44.8221C26.3267 44.6866 26.3267 44.5511 26.3706 44.4155C26.4145 44.28 26.3706 44.1445 26.4145 44.0089C26.4145 43.8734 26.4145 43.7379 26.4585 43.6023C26.4585 43.4668 26.4585 43.3313 26.5024 43.1957C26.5024 43.0602 26.5024 42.9247 26.5464 42.7891C26.5464 42.6536 26.5464 42.518 26.5903 42.3825C26.5464 42.3825 26.5464 42.3825 26.5464 42.3825C26.2827 42.518 25.9751 42.6084 25.7114 42.7439C25.4917 42.8343 25.272 42.9247 25.0522 43.015H25.0083C25.0522 42.3373 25.0962 41.6597 25.1401 40.9368C25.1401 40.8916 25.1841 40.8916 25.228 40.8916C25.6675 40.7109 26.1069 40.5302 26.5464 40.3043C28.0405 39.6718 29.4907 39.0393 30.9848 38.4068C32.6547 37.684 34.3247 36.9611 35.9946 36.2383C36.0385 36.2383 36.0385 36.2383 36.0825 36.1931C36.0825 37.0515 36.0825 37.9099 36.0825 38.7231H36.1264C36.1264 38.6779 36.1703 38.6779 36.1703 38.6327C36.7856 37.5485 37.3569 36.4642 37.9721 35.4251C38.016 35.3799 38.016 35.3347 38.06 35.3347C38.4115 35.1992 38.7192 35.0637 39.0707 34.8829C39.2026 34.8378 39.3344 34.7926 39.4662 34.7926C39.6859 34.7926 39.8617 34.8829 39.9936 35.0637C40.0375 35.1088 40.0815 35.1992 40.1693 35.2444C40.2572 35.3799 40.3891 35.4703 40.477 35.6058C40.7846 36.0124 41.0922 36.3738 41.4437 36.7804L41.4877 36.8256C41.4877 36.8256 41.4877 36.8256 41.4877 36.7804C41.4877 36.6449 41.4877 36.5094 41.5316 36.3286C41.5316 36.1479 41.5756 35.9672 41.5756 35.7413C41.5756 35.651 41.5756 35.5606 41.5756 35.4703C41.5756 35.1992 41.6195 34.8829 41.6195 34.6119C41.6195 34.4312 41.6635 34.2505 41.6635 34.0697C41.6635 33.9342 41.6635 33.7987 41.7074 33.7083C41.7074 33.7083 41.7514 33.7083 41.7514 33.6631C42.2787 33.4372 42.7621 33.2114 43.2894 32.9855C43.3773 32.9403 43.5092 32.8951 43.641 32.8951C43.9047 32.8951 44.1244 32.9855 44.2562 33.2114C44.3441 33.3469 44.432 33.4824 44.5638 33.618C44.6517 33.7535 44.7396 33.889 44.8275 33.9794L44.8715 34.0246C44.9154 34.0246 44.9154 33.9794 44.9154 33.9794C45.0472 33.7083 45.1791 33.4372 45.3109 33.2114C45.4867 32.8951 45.6625 32.5789 45.8383 32.2174C45.8822 32.1271 45.9701 31.9915 46.058 31.9012C46.1898 31.7657 46.3216 31.6753 46.4974 31.5849C47.1127 31.3139 47.7718 31.0428 48.3871 30.7717C48.431 30.7717 48.475 30.7266 48.5189 30.7266H48.5628C48.475 32.3078 48.3431 33.9342 48.2552 35.5154C48.2552 35.5606 48.2113 35.5606 48.1673 35.5606C47.8597 35.6962 47.5521 35.8317 47.2445 35.9672C46.2338 36.419 45.223 36.8256 44.1683 37.2774C43.9047 37.6388 43.9047 37.6388 43.8607 37.6388ZM47.4642 35.4703C47.4642 35.3347 47.4642 35.2444 47.5082 35.154C47.5082 34.9733 47.5521 34.7474 47.5521 34.5667C47.5521 34.386 47.5961 34.2053 47.5961 34.0246C47.5961 33.8439 47.64 33.6631 47.64 33.4824C47.64 33.3017 47.6839 33.121 47.6839 32.9403C47.6839 32.624 47.7279 32.3078 47.7279 31.9916C47.7279 31.9916 47.7279 31.9916 47.7279 31.9464H47.6839C47.2884 32.1271 46.8929 32.3078 46.4535 32.4885C46.3656 32.5337 46.3216 32.5789 46.2777 32.624C46.2338 32.6692 46.1459 32.7596 46.1019 32.8499C45.7943 33.3921 45.5306 33.9794 45.223 34.5215C45.0912 34.7926 44.9154 35.1088 44.7836 35.3799C44.7836 35.4251 44.7836 35.4251 44.7396 35.4703C44.7396 35.4251 44.6957 35.4251 44.6957 35.4251C44.476 35.1088 44.2123 34.7474 43.9926 34.4312C43.8607 34.2505 43.7728 34.1149 43.641 33.9342C43.5971 33.8439 43.5092 33.8439 43.4213 33.8439C43.3773 33.8439 43.3334 33.8439 43.2894 33.889C42.8939 34.0697 42.4984 34.2505 42.059 34.4312C42.059 34.4312 42.015 34.4312 42.015 34.4763C41.9271 35.651 41.8832 36.8256 41.7953 38.0002C41.8832 38.0002 41.9271 37.9551 42.015 37.9099C42.1029 37.8647 42.1469 37.8647 42.2348 37.8195C42.3226 37.7743 42.3666 37.7743 42.4545 37.7292C42.5424 37.684 42.5863 37.684 42.6742 37.6388C42.7621 37.5936 42.806 37.5936 42.8939 37.5485C42.9818 37.5033 43.0258 37.5033 43.1137 37.4581C43.2015 37.4129 43.2455 37.4129 43.3334 37.3677C43.3773 36.916 43.3773 36.5094 43.4213 36.0576L43.4652 36.1028C43.6849 36.419 43.9047 36.6901 44.1244 37.0063L44.1683 37.0515H44.2123C44.5638 36.916 44.8715 36.7804 45.223 36.6449C45.267 36.6449 45.267 36.5997 45.3109 36.5545C45.5746 36.1028 45.7943 35.6058 46.058 35.154C46.1019 35.0637 46.1459 35.0185 46.1898 34.9281C46.1898 34.9281 46.1898 34.8829 46.2338 34.9281C46.2338 35.0637 46.2338 35.1992 46.1898 35.3799C46.1898 35.5154 46.1898 35.6962 46.1459 35.8317C46.1459 35.9672 46.1019 36.1028 46.1019 36.2835C46.1459 36.2835 46.1459 36.2835 46.1459 36.2383C46.4974 35.8769 46.9808 35.651 47.4642 35.4703ZM35.2914 37.2322C35.2475 37.2322 35.2475 37.2322 35.2036 37.2774C33.8852 37.8195 32.6108 38.4068 31.2924 38.9942C31.0288 39.1297 30.853 39.3104 30.7651 39.6266C30.7651 39.6718 30.7651 39.6718 30.7651 39.717C30.7651 39.8074 30.7651 39.8977 30.7212 39.9881C30.7212 40.2591 30.6772 40.5754 30.6772 40.8465C30.6772 41.1627 30.6333 41.5241 30.6333 41.8404C30.6333 41.9307 30.6333 42.0663 30.5893 42.1566C30.5893 42.2018 30.5893 42.2922 30.5893 42.3373C30.5893 42.518 30.7212 42.6084 30.8969 42.6084C30.9848 42.6084 31.0288 42.5632 31.1167 42.5632C32.3032 42.0663 33.4457 41.5693 34.6323 41.0272C34.7202 40.982 34.808 40.9368 34.8959 40.8916C35.0278 40.8465 35.1157 40.7109 35.1157 40.5754C35.1157 40.3947 35.1596 40.214 35.1596 40.0332V39.9881C35.1157 39.9881 35.1157 39.9881 35.0717 39.9881C34.9399 40.0333 34.808 40.0784 34.7202 40.1688C33.9291 40.5302 33.0942 40.8465 32.3032 41.2079C32.3032 41.2079 32.2592 41.2079 32.2592 41.2531C32.1713 41.2531 32.1274 41.2531 32.1274 41.1627C32.1274 41.1175 32.1274 41.0723 32.1274 41.0272C32.1274 40.9368 32.1274 40.8465 32.1274 40.7561C32.1274 40.7561 32.1713 40.7561 32.1713 40.7109C32.435 40.6206 32.6547 40.485 32.9184 40.3947C33.4458 40.1688 33.9731 39.9429 34.5004 39.717C34.6762 39.6266 34.7641 39.5363 34.7641 39.3556C34.7641 39.3104 34.7641 39.2652 34.7641 39.22C34.7641 39.0845 34.7641 38.9942 34.7641 38.8586V38.8134C34.6323 38.8586 34.5004 38.9038 34.3686 38.9942C34.2368 39.0393 34.1049 39.0845 34.017 39.1749C33.8852 39.22 33.7534 39.2652 33.6655 39.3556C33.5336 39.4008 33.4018 39.4459 33.27 39.5363C33.1381 39.5815 33.0063 39.6266 32.9184 39.717C32.7866 39.7622 32.6547 39.8074 32.5668 39.8977C32.435 39.9429 32.3032 39.9881 32.1713 40.0784C32.1713 40.0333 32.1713 40.0332 32.1713 40.0332C32.1713 39.9429 32.1713 39.8074 32.2153 39.717C32.2153 39.6266 32.2592 39.5363 32.3911 39.4911H32.435C33.0502 39.22 33.7094 38.949 34.3247 38.6779C34.5883 38.5876 34.808 38.452 35.0717 38.3617C35.1157 38.3617 35.1596 38.3165 35.2036 38.2713C35.2914 38.181 35.3354 38.1358 35.3354 38.0002C35.3354 37.8647 35.3354 37.7292 35.3793 37.5936C35.2914 37.3677 35.2914 37.3226 35.2914 37.2322ZM35.643 40.5754C36.2143 40.3495 36.7416 40.1236 37.269 39.8977C37.3129 39.8977 37.3129 39.8525 37.3569 39.8525C37.4008 39.717 37.4887 39.6266 37.5326 39.4911C37.5326 39.4459 37.5766 39.4459 37.6205 39.4008C38.2358 39.1297 38.851 38.8586 39.4223 38.6327H39.4662C39.5541 38.7231 39.5981 38.8134 39.642 38.8586C39.7299 38.8134 41.268 38.1809 41.3119 38.1358C41.3119 38.0906 41.268 38.0906 41.268 38.0454C40.7406 37.3677 40.2133 36.7353 39.6859 36.0576C39.5981 35.922 39.4662 35.7865 39.3783 35.651C39.3344 35.6058 39.2904 35.5606 39.2025 35.5606C39.1586 35.5606 39.1147 35.5606 39.0268 35.6058C38.7631 35.7413 38.4994 35.8317 38.1918 35.9672C38.1479 35.9672 38.1039 36.0124 38.1039 36.0576C37.6205 36.8708 37.1811 37.7292 36.6977 38.5424C36.3461 39.1749 35.9946 39.8074 35.643 40.4399C35.643 40.5302 35.643 40.5302 35.643 40.5754ZM25.4917 42.2922C25.5796 42.247 25.6235 42.247 25.7114 42.2018C25.7993 42.1566 25.8872 42.1566 25.9311 42.1114C26.019 42.0663 26.063 42.0663 26.1509 42.0211C26.2388 41.9759 26.2827 41.9759 26.3706 41.9307C26.4585 41.8856 26.5024 41.8856 26.5903 41.8404C26.6782 41.7952 26.7661 41.75 26.81 41.75C26.8979 41.7048 26.9419 41.6597 27.0298 41.6597C27.0298 41.7048 27.0298 41.75 27.0298 41.75C27.0298 41.9307 26.9858 42.1566 26.9858 42.3373C26.9858 42.518 26.9419 42.6988 26.9419 42.8795C26.9419 43.0602 26.8979 43.2861 26.8979 43.4668C26.8979 43.6475 26.854 43.8282 26.854 44.0089C26.854 44.0993 26.854 44.2348 26.854 44.3252V44.3704C26.8979 44.3704 26.8979 44.3704 26.8979 44.3704C27.3374 44.1896 27.8208 43.9637 28.2602 43.783C28.2602 43.783 28.3042 43.783 28.3042 43.7379C28.3042 43.6927 28.3042 43.6475 28.3042 43.6023C28.3042 43.512 28.3042 43.3764 28.3042 43.2861C28.3042 43.1054 28.3481 42.8795 28.3481 42.6988C28.3481 42.518 28.3921 42.3373 28.3921 42.2018C28.3921 42.0211 28.436 41.8404 28.436 41.6597C28.436 41.479 28.48 41.2531 28.48 41.0723C28.48 41.0272 28.48 41.0272 28.48 40.982C28.5239 40.982 28.5239 40.9368 28.5679 40.9368C29.0073 40.7561 29.4468 40.5302 29.8862 40.3495C29.9301 40.3495 29.9741 40.3043 30.018 40.3043C30.1059 40.214 30.1499 40.1688 30.1499 40.0332C30.1499 39.9881 30.1499 39.8977 30.1499 39.8525C30.1499 39.7622 30.1499 39.6266 30.1499 39.5363V39.4911C30.1059 39.4911 25.4917 41.479 25.4038 41.5241C25.4917 41.6597 25.4478 42.2018 25.4917 42.2922Z" fill="white"/>
<path d="M38.5874 37.5469C38.6313 37.5921 38.939 37.9535 38.9829 37.9987C38.7192 38.1342 38.4116 38.2245 38.1479 38.3601C38.2798 38.089 38.4116 37.8631 38.5874 37.5921C38.5874 37.5469 38.5874 37.5469 38.5874 37.5469Z" fill="white"/>
<path d="M47.8163 31.9423C47.8163 32.3489 47.8603 32.7555 47.8163 33.2073C47.7724 34.156 47.6845 34.9692 47.5087 35.7372C46.498 36.189 45.4872 36.5956 44.4325 37.0474C42.8066 37.7702 41.1806 38.4931 39.5546 39.2159C39.4228 39.1708 39.247 39.1256 39.1152 39.0804C38.6318 39.2611 38.1484 39.487 37.6211 39.7129C37.5332 39.8484 37.4892 40.0292 37.4013 40.1647C35.9072 40.7972 34.3691 41.4297 32.875 42.0622C32.6553 42.2881 32.4795 42.5591 32.2598 42.785C33.2705 42.4688 34.3252 42.1073 35.3359 41.7911C35.9951 41.8363 36.6543 41.9266 37.3134 41.9718C37.4892 41.5652 37.7089 41.1586 37.8847 40.7068C39.9501 40.0743 42.0595 39.487 44.1249 38.8545C45.5751 37.9961 46.9814 37.1829 48.4315 36.3245C48.7831 36.0535 49.1347 35.7372 49.4862 35.4662C49.3983 34.8337 49.3104 34.2012 49.2225 33.5687C49.1347 32.8458 49.0028 32.123 48.9149 31.4453C48.5634 31.626 48.2118 31.7616 47.8163 31.9423Z" fill="white"/>
</svg>
