<svg width="35" height="35" viewBox="0 0 35 35" fill="none" xmlns="http://www.w3.org/2000/svg">
<path d="M25.7115 26.1601V19.9808C25.7115 16.9439 25.0577 14.624 21.5146 14.624C19.8064 14.624 18.6675 15.552 18.2036 16.4377H18.1614V14.8982H14.8081V26.1601H18.309V20.5713C18.309 19.095 18.5832 17.682 20.3969 17.682C22.1895 17.682 22.2106 19.3481 22.2106 20.6557V26.139H25.7115V26.1601Z" fill="white"/>
<path d="M9.11389 14.8975H12.6148V26.1594H9.11389V14.8975Z" fill="white"/>
<path d="M10.8643 9.28809C9.74658 9.28809 8.83972 10.1949 8.83972 11.3127C8.83972 12.4305 9.74658 13.3584 10.8643 13.3584C11.9821 13.3584 12.889 12.4305 12.889 11.3127C12.889 10.1949 11.9821 9.28809 10.8643 9.28809Z" fill="white"/>
<circle cx="17.5" cy="17.5" r="17.2564" stroke="white" stroke-opacity="0.6" stroke-width="0.487179"/>
</svg>
