<svg width="31" height="31" viewBox="0 0 31 31" fill="none" xmlns="http://www.w3.org/2000/svg">
<path d="M20.5 1H10.5C5.25329 1 1 5.25329 1 10.5V20.5C1 25.7467 5.25329 30 10.5 30H20.5C25.7467 30 30 25.7467 30 20.5V10.5C30 5.25329 25.7467 1 20.5 1Z" stroke="#C4C4C4"/>
<path d="M20.5 1H10.5C5.25329 1 1 5.25329 1 10.5V20.5C1 25.7467 5.25329 30 10.5 30H20.5C25.7467 30 30 25.7467 30 20.5V10.5C30 5.25329 25.7467 1 20.5 1Z" stroke="url(#paint0_linear_31_12)"/>
<path d="M9.36335 9.36343C9.59612 9.13074 9.91177 9.00002 10.2409 9.00002C10.57 9.00002 10.8857 9.13074 11.1185 9.36343L15.5074 13.7524L19.8964 9.36343C20.1305 9.13733 20.444 9.01222 20.7695 9.01505C21.0949 9.01788 21.4063 9.14842 21.6364 9.37855C21.8665 9.60868 21.9971 9.92 21.9999 10.2454C22.0027 10.5709 21.8776 10.8844 21.6515 11.1185L17.2625 15.5075L21.6515 19.8965C21.8776 20.1306 22.0027 20.4441 21.9999 20.7696C21.9971 21.095 21.8665 21.4063 21.6364 21.6365C21.4063 21.8666 21.0949 21.9971 20.7695 22C20.444 22.0028 20.1305 21.8777 19.8964 21.6516L15.5074 17.2626L11.1185 21.6516C10.8844 21.8777 10.5708 22.0028 10.2454 22C9.91992 21.9971 9.60861 21.8666 9.37847 21.6365C9.14834 21.4063 9.0178 21.095 9.01497 20.7696C9.01215 20.4441 9.13725 20.1306 9.36335 19.8965L13.7523 15.5075L9.36335 11.1185C9.13066 10.8858 8.99994 10.5701 8.99994 10.241C8.99994 9.91185 9.13066 9.5962 9.36335 9.36343Z" fill="white"/>
<defs>
<linearGradient id="paint0_linear_31_12" x1="15.5" y1="0.5" x2="15.5" y2="30.5" gradientUnits="userSpaceOnUse">
<stop stop-color="#FCC601"/>
<stop offset="1" stop-color="#FC8401"/>
</linearGradient>
</defs>
</svg>
